<?xml version="1.0" encoding="utf-8"?>
<!-- Generator: Adobe Illustrator 23.0.2, SVG Export Plug-In . SVG Version: 6.00 Build 0)  -->
<svg version="1.1" id="Layer_1" xmlns="http://www.w3.org/2000/svg" xmlns:xlink="http://www.w3.org/1999/xlink" x="0px" y="0px"
	 viewBox="0 0 20 18" style="enable-background:new 0 0 20 18;" xml:space="preserve">
<style type="text/css">
	.st0{fill-rule:evenodd;clip-rule:evenodd;fill:#FFFFFF;}
</style>
<path class="st0" d="M18.5,13.5v-12h-17V15L3,13.5H18.5z M18.5,0c0.4,0,0.8,0.1,1,0.4c0.3,0.3,0.4,0.6,0.4,1v12
	c0,0.4-0.1,0.8-0.4,1.1c-0.3,0.3-0.6,0.4-1,0.4H3l-3,3V1.5c0-0.4,0.1-0.8,0.4-1S1.1,0,1.5,0H18.5z M11.1,3l-0.2,6.1H9.7L9.5,3H11.1z
	 M9.5,11.8v-1.6h1.6v1.6H9.5z"/>
</svg>
