<?xml version="1.0" encoding="utf-8"?>
<!-- Generator: Adobe Illustrator 23.0.2, SVG Export Plug-In . SVG Version: 6.00 Build 0)  -->
<svg version="1.1" id="Layer_1" xmlns="http://www.w3.org/2000/svg" xmlns:xlink="http://www.w3.org/1999/xlink" x="0px" y="0px"
	 viewBox="0 0 17 17" style="enable-background:new 0 0 17 17;" xml:space="preserve">
<style type="text/css">
	.st0{fill:#013264;}
</style>
<path class="st0" d="M15.7,12.7V1.4H1.3v12.8l1.3-1.4H15.7z M15.7,0c0.3,0,0.6,0.1,0.9,0.4C16.9,0.7,17,1,17,1.4v11.3
	c0,0.4-0.1,0.7-0.4,1c-0.2,0.3-0.5,0.4-0.9,0.4H2.5L0,17V1.4c0-0.4,0.1-0.7,0.4-1C0.6,0.1,0.9,0,1.3,0H15.7z M7.6,10.5L5.1,7.6
	l0.9-1l1.6,1.8l4.2-4.7l0.9,1L7.6,10.5z"/>
</svg>
