<?xml version="1.0" encoding="utf-8"?>
<!-- Generator: Adobe Illustrator 23.0.2, SVG Export Plug-In . SVG Version: 6.00 Build 0)  -->
<svg version="1.1" id="Layer_1" xmlns="http://www.w3.org/2000/svg" xmlns:xlink="http://www.w3.org/1999/xlink" x="0px" y="0px"
	 viewBox="0 0 8.3 12.2" style="enable-background:new 0 0 8.3 12.2;" xml:space="preserve">
<style type="text/css">
	.st0{fill-rule:evenodd;clip-rule:evenodd;fill:#BF2C37;}
</style>
<path class="st0" d="M7.3,5.6c0.1,0.1,0.1,0.2,0.1,0.3s0,0.2-0.1,0.3l-4.8,5.1c-0.1,0.1-0.2,0.1-0.2,0.1s-0.2,0-0.2-0.1l-0.5-0.6
	c0,0-0.1-0.1-0.1-0.2c0-0.1-0.1-0.2,0-0.3l4.1-4.3L1.5,1.6C1.4,1.5,1.4,1.4,1.4,1.3s0-0.2,0.1-0.3L2,0.4c0.1-0.1,0.1-0.1,0.2-0.1
	c0.1,0,0.2,0.1,0.3,0.2L7.3,5.6z"/>
</svg>
