<?xml version="1.0" encoding="utf-8"?>
<!-- Generator: Adobe Illustrator 23.0.2, SVG Export Plug-In . SVG Version: 6.00 Build 0)  -->
<svg version="1.1" id="Layer_1" xmlns="http://www.w3.org/2000/svg" xmlns:xlink="http://www.w3.org/1999/xlink" x="0px" y="0px"
	 viewBox="0 0 20 20" style="enable-background:new 0 0 20 20;" xml:space="preserve">
<style type="text/css">
	.st0{fill:#FFFFFF;}
</style>
<path class="st0" d="M18.8,4c0.3,0,0.6,0.1,0.9,0.4S20,4.9,20,5.2v13.1c0,0.3-0.1,0.6-0.4,0.9s-0.5,0.4-0.9,0.4H1.2
	c-0.3,0-0.6-0.1-0.9-0.4S0,18.7,0,18.4V5.2c0-0.3,0.1-0.6,0.4-0.9S0.9,4,1.2,4h5V2.8c0-0.5,0.2-0.9,0.5-1.3s0.8-0.6,1.3-0.6h3.8
	c0.5,0,1,0.2,1.3,0.6s0.5,0.8,0.5,1.3V4H18.8z M7.5,2.8V4h5V2.8c0-0.2-0.1-0.3-0.2-0.4s-0.3-0.2-0.4-0.2H8.1C8,2.1,7.8,2.2,7.7,2.3
	S7.5,2.6,7.5,2.8z M1.2,5.2v4.4h6.9V9c0-0.3,0.1-0.6,0.4-0.9C8.7,7.9,9,7.7,9.4,7.7h1.2c0.3,0,0.6,0.1,0.9,0.4
	c0.2,0.2,0.4,0.5,0.4,0.9v0.6h6.9V5.2H1.2z M10.6,12.1V9H9.4v3.1H10.6z M1.2,18.4h17.5v-7.5h-6.9v1.2c0,0.4-0.1,0.6-0.4,0.9
	s-0.5,0.4-0.9,0.4H9.4c-0.4,0-0.6-0.1-0.9-0.4s-0.4-0.5-0.4-0.9v-1.2H1.2V18.4z"/>
</svg>
