<?xml version="1.0" encoding="utf-8"?>
<!-- Generator: Adobe Illustrator 23.0.2, SVG Export Plug-In . SVG Version: 6.00 Build 0)  -->
<svg version="1.1" id="Layer_1" xmlns="http://www.w3.org/2000/svg" xmlns:xlink="http://www.w3.org/1999/xlink" x="0px" y="0px"
	 viewBox="0 0 16 10" style="enable-background:new 0 0 16 10;" xml:space="preserve">
<style type="text/css">
	.st0{fill:#013264;}
</style>
<path class="st0" d="M15.4,8.5l-0.8,0.8c-0.1,0.1-0.2,0.2-0.4,0.2S14,9.3,13.9,9.2L7.8,3.1L1.6,9.2C1.5,9.3,1.4,9.4,1.3,9.4
	S1,9.3,0.9,9.2L0.1,8.5C0,8.4,0,8.2,0,8.1C0,8,0,7.8,0.1,7.7l7.3-7.3c0.1-0.1,0.2-0.2,0.4-0.2S8,0.4,8.1,0.5l7.3,7.3
	c0.1,0.1,0.2,0.2,0.2,0.4C15.6,8.2,15.5,8.4,15.4,8.5L15.4,8.5L15.4,8.5z"/>
</svg>
