<?xml version="1.0" encoding="utf-8"?>
<!-- Generator: Adobe Illustrator 23.0.2, SVG Export Plug-In . SVG Version: 6.00 Build 0)  -->
<svg version="1.1" id="Layer_1" xmlns="http://www.w3.org/2000/svg" xmlns:xlink="http://www.w3.org/1999/xlink" x="0px" y="0px"
	 viewBox="0 0 14 15" style="enable-background:new 0 0 14 15;" xml:space="preserve">
<style type="text/css">
	.st0{fill-rule:evenodd;clip-rule:evenodd;fill:#BF2C37;}
</style>
<path id="call-" class="st0" d="M3,6.8c0.6,1.1,1.3,2,2.1,2.9s1.8,1.6,2.9,2.1l1.7-1.7C9.7,10,9.8,9.9,9.9,9.9s0.3,0,0.4,0
	c0.8,0.3,1.7,0.4,2.7,0.4c0.2,0,0.4,0.1,0.5,0.2c0.1,0.1,0.2,0.3,0.2,0.5v2.6c0,0.2-0.1,0.4-0.2,0.5c-0.1,0.1-0.3,0.2-0.5,0.2
	c-1.7,0-3.4-0.3-5-1c-1.5-0.6-2.9-1.6-4-2.7S1.9,8.2,1.3,6.7c-0.7-1.6-1-3.2-1-5c0-0.2,0.1-0.4,0.2-0.5S0.8,0.9,1,0.9h2.6
	C3.8,0.9,4,1,4.2,1.2c0.1,0.1,0.2,0.3,0.2,0.5c0,1,0.1,1.9,0.4,2.7c0,0.1,0,0.3,0,0.4c0,0.1-0.1,0.3-0.2,0.4L3,6.8z"/>
</svg>
