<?xml version="1.0" encoding="utf-8"?>
<!-- Generator: Adobe Illustrator 23.0.2, SVG Export Plug-In . SVG Version: 6.00 Build 0)  -->
<svg version="1.1" id="Layer_1" xmlns="http://www.w3.org/2000/svg" xmlns:xlink="http://www.w3.org/1999/xlink" x="0px" y="0px"
	 viewBox="0 0 16 16" style="enable-background:new 0 0 16 16;" xml:space="preserve">
<style type="text/css">
	.st0{fill:#1641B9;}
</style>
<path class="st0" d="M0.9,12.7L0.9,12.7l0-0.1C0.3,11.8,0,10.8,0,9.8c0-1.6,0.6-2.9,1.8-3.9c-0.1,0.5-0.1,1-0.1,1.3
	c0,1.7,0.6,3.2,1.9,4.4s2.8,1.8,4.6,1.8c0.6,0,1.1-0.1,1.6-0.2c-1.1,1.3-2.5,2-4.3,2c-0.7,0-1.4-0.1-2.2-0.4h0
	c-0.1,0-0.2-0.1-0.3-0.1c-0.1,0-0.2,0-0.3,0.1l-2.1,0.8L1,13.1C1,13,1,12.9,0.9,12.7z M9,0c1.8,0,3.3,0.6,4.6,1.8s1.9,2.7,1.9,4.4
	c0,1.2-0.3,2.3-1,3.3l0,0c0,0,0,0,0,0.1c-0.1,0.1-0.1,0.3-0.1,0.4l0.6,2.7l-2.6-1c-0.1,0-0.3-0.1-0.4-0.1c-0.1,0-0.2,0-0.3,0.1
	l-0.1,0c-0.2,0.1-0.5,0.2-0.9,0.3c-0.5,0.1-1.1,0.2-1.6,0.2c-1.8,0-3.3-0.6-4.5-1.8S2.6,7.9,2.6,6.2c0-0.4,0-0.9,0.1-1.3
	c0.3-1.4,1-2.6,2.2-3.5S7.4,0,9,0z"/>
</svg>
