<?xml version="1.0" encoding="utf-8"?>
<!-- Generator: Adobe Illustrator 23.0.2, SVG Export Plug-In . SVG Version: 6.00 Build 0)  -->
<svg version="1.1" id="Layer_1" xmlns="http://www.w3.org/2000/svg" xmlns:xlink="http://www.w3.org/1999/xlink" x="0px" y="0px"
	 viewBox="0 0 30 38" style="enable-background:new 0 0 30 38;" xml:space="preserve">
<style type="text/css">
	.st0{fill:#013264;}
	.st1{fill:#012040;fill-opacity:0.85;}
	.st2{fill:#FFFFFF;}
</style>
<path id="Shape" class="st0" d="M20.6,0H1C0.4,0,0,0.4,0,1.3v36C0,37.6,0.4,38,1,38h27.1c0.5,0,1-0.4,1-0.7V8.8
	c0-0.5-0.1-0.6-0.2-0.7L21,0.2C20.9,0.1,20.8,0,20.6,0z"/>
<polygon class="st1" points="21.3,0.1 21.3,8.1 29.3,8.1 "/>
<path class="st2" d="M15.1,15.4c1,0,1.9,0.4,2.7,1.1c0.7,0.7,1.1,1.6,1.1,2.6c0,1-0.4,1.9-1.1,2.7c-0.7,0.7-1.6,1.1-2.7,1.1
	c-1,0-1.9-0.4-2.6-1.1c-0.7-0.7-1.1-1.6-1.1-2.7c0-1,0.4-1.9,1.1-2.6C13.1,15.8,14,15.4,15.1,15.4z M25,19C25,19,25,19.1,25,19
	c0,0.1,0,0.1,0,0.2c0,0,0,0.1,0,0.1c0,0,0,0.1,0,0.1c0,0,0,0,0,0v0.1l0,0v0c0,0,0,0,0,0c-0.4,1-1,2-1.7,2.8c-0.7,0.8-1.5,1.5-2.4,2
	c-0.9,0.6-1.8,1-2.8,1.3S16,26,15,26s-2.1-0.1-3.1-0.4s-1.9-0.7-2.8-1.3c-0.9-0.6-1.7-1.2-2.4-2c-0.7-0.8-1.3-1.7-1.7-2.8v-0.1l0,0
	c0,0,0,0,0,0v0c0,0,0,0,0-0.1c0,0,0-0.1,0-0.1c0,0,0-0.1,0-0.1c0,0,0-0.1,0-0.1C5,19,5,19,5,19c0,0,0,0,0,0v-0.1l0,0v-0.1
	c0.5-1,1-2,1.7-2.8c0.7-0.8,1.5-1.5,2.4-2.1s1.8-1,2.8-1.3c1-0.3,2-0.4,3.1-0.4s2.1,0.1,3.1,0.4c1,0.3,1.9,0.7,2.8,1.3
	s1.6,1.2,2.3,2.1c0.7,0.8,1.3,1.7,1.7,2.8c0,0,0,0,0,0v0l0,0C25,18.9,25,18.9,25,19L25,19C25,19,25,19,25,19z M15,24.8
	c0.9,0,1.8-0.1,2.6-0.4c0.9-0.2,1.7-0.6,2.4-1.1c0.8-0.5,1.5-1.1,2.1-1.8s1.2-1.5,1.6-2.5c-0.4-0.9-0.9-1.8-1.6-2.5
	s-1.3-1.3-2.1-1.8c-0.8-0.5-1.6-0.8-2.4-1.1s-1.7-0.4-2.6-0.4s-1.8,0.1-2.6,0.4s-1.7,0.6-2.5,1.1c-0.8,0.5-1.5,1.1-2.1,1.8
	s-1.2,1.5-1.6,2.5c0.4,0.9,0.9,1.8,1.6,2.5s1.3,1.3,2.1,1.8c0.8,0.5,1.6,0.8,2.4,1.1C13.2,24.7,14.1,24.8,15,24.8z"/>
</svg>
