<?xml version="1.0" encoding="utf-8"?>
<!-- Generator: Adobe Illustrator 23.0.2, SVG Export Plug-In . SVG Version: 6.00 Build 0)  -->
<svg version="1.1" id="Layer_1" xmlns="http://www.w3.org/2000/svg" xmlns:xlink="http://www.w3.org/1999/xlink" x="0px" y="0px"
	 viewBox="0 0 12 19" style="enable-background:new 0 0 12 19;" xml:space="preserve">
<style type="text/css">
	.st0{fill-rule:evenodd;clip-rule:evenodd;fill:#013264;}
</style>
<path class="st0" d="M6,17.4l-0.2,0.2c0,0-0.1,0.1-0.1,0.1c-0.1,0-0.2,0-0.3,0l-2.2-2.4C3,15.2,3,15.1,3,15c0-0.1,0-0.2,0.1-0.2
	l0.2-0.2c0.1-0.1,0.1-0.1,0.2-0.1c0,0,0,0,0,0c0.1,0,0.2,0.1,0.3,0.1L5,16v-5.4c0-0.1,0.1-0.3,0.2-0.4c0.2-0.2,0.5-0.2,0.8,0
	C6,10.3,6,10.4,6,10.5V16l1.2-1.3c0.2-0.2,0.4-0.2,0.5,0l0.1,0.1C8,14.8,8,14.9,8,15c0,0.1-0.1,0.2-0.1,0.3L6,17.4z M11.5,5v10
	c0,0.3-0.1,0.5-0.3,0.7S10.8,16,10.5,16H8.6l0,0C8.9,15.7,9,15.4,9,15c0,0,0,0,0,0h1.5V6.5H5V1H1v14h1c0,0,0,0,0,0
	c0,0.4,0.1,0.7,0.4,1l0,0H1c-0.3,0-0.5-0.1-0.7-0.3S0,15.3,0,15V1c0-0.3,0.1-0.5,0.3-0.7S0.7,0,1,0h5.5L11.5,5z M10.5,5.4L6.1,1H6
	v4.5L10.5,5.4L10.5,5.4z"/>
</svg>
