<?xml version="1.0" encoding="utf-8"?>
<!-- Generator: Adobe Illustrator 23.0.2, SVG Export Plug-In . SVG Version: 6.00 Build 0)  -->
<svg version="1.1" id="Layer_1" xmlns="http://www.w3.org/2000/svg" xmlns:xlink="http://www.w3.org/1999/xlink" x="0px" y="0px"
	 viewBox="0 0 30 38" style="enable-background:new 0 0 30 38;" xml:space="preserve">
<style type="text/css">
	.st0{fill:#EEEEEE;}
	.st1{fill:#C2CBDA;}
	.st2{fill:#8697CB;}
	.st3{fill:#21B2E7;}
	.st4{fill:#FFFFFF;}
</style>
<path id="Shape" class="st0" d="M21,0H1.3c-0.5,0-1,0.4-1,1.3v36c0,0.2,0.4,0.7,1,0.7h27.1c0.5,0,1-0.4,1-0.7V8.8
	c0-0.5-0.1-0.6-0.2-0.7l-7.9-7.9C21.3,0.1,21.1,0,21,0z"/>
<polygon class="st1" points="21.3,0.1 21.3,8.1 29.3,8.1 "/>
<path class="st2" d="M8.5,8.8H4.4C4,8.8,3.7,8.5,3.7,8.1c0-0.4,0.3-0.7,0.7-0.7h4.1c0.4,0,0.7,0.3,0.7,0.7C9.1,8.5,8.8,8.8,8.5,8.8z
	"/>
<path class="st2" d="M10.5,12.2H4.4c-0.4,0-0.7-0.3-0.7-0.7c0-0.4,0.3-0.7,0.7-0.7h6.1c0.4,0,0.7,0.3,0.7,0.7
	C11.2,11.9,10.9,12.2,10.5,12.2z"/>
<path class="st2" d="M13.2,12.2c-0.2,0-0.4-0.1-0.5-0.2c-0.1-0.1-0.2-0.3-0.2-0.5s0.1-0.4,0.2-0.5c0.3-0.3,0.7-0.3,1,0
	c0.1,0.1,0.2,0.3,0.2,0.5s-0.1,0.4-0.2,0.5C13.5,12.1,13.4,12.2,13.2,12.2z"/>
<path class="st2" d="M21.3,12.2h-5.4c-0.4,0-0.7-0.3-0.7-0.7c0-0.4,0.3-0.7,0.7-0.7h5.4c0.4,0,0.7,0.3,0.7,0.7
	C22,11.9,21.7,12.2,21.3,12.2z"/>
<path class="st2" d="M4.4,22.4c-0.2,0-0.4-0.1-0.5-0.2c-0.1-0.1-0.2-0.3-0.2-0.5c0-0.2,0.1-0.4,0.2-0.5c0.3-0.3,0.7-0.3,1,0
	c0.1,0.1,0.2,0.3,0.2,0.5c0,0.2-0.1,0.4-0.2,0.5C4.8,22.3,4.6,22.4,4.4,22.4z"/>
<path class="st2" d="M12.5,22.4H7.1c-0.4,0-0.7-0.3-0.7-0.7c0-0.4,0.3-0.7,0.7-0.7h5.4c0.4,0,0.7,0.3,0.7,0.7
	C13.2,22.1,12.9,22.4,12.5,22.4z"/>
<path class="st2" d="M25.4,12.2H24c-0.4,0-0.7-0.3-0.7-0.7c0-0.4,0.3-0.7,0.7-0.7h1.4c0.4,0,0.7,0.3,0.7,0.7
	C26.1,11.9,25.7,12.2,25.4,12.2z"/>
<path class="st2" d="M19.3,15.6H4.4c-0.4,0-0.7-0.3-0.7-0.7c0-0.4,0.3-0.7,0.7-0.7h14.9c0.4,0,0.7,0.3,0.7,0.7
	C20,15.3,19.7,15.6,19.3,15.6z"/>
<path class="st2" d="M25.4,15.6h-4.1c-0.4,0-0.7-0.3-0.7-0.7c0-0.4,0.3-0.7,0.7-0.7h4.1c0.4,0,0.7,0.3,0.7,0.7
	C26.1,15.3,25.7,15.6,25.4,15.6z"/>
<path class="st2" d="M7.1,19H4.4c-0.4,0-0.7-0.3-0.7-0.7s0.3-0.7,0.7-0.7h2.7c0.4,0,0.7,0.3,0.7,0.7S7.5,19,7.1,19z"/>
<path class="st2" d="M16.6,19H9.8c-0.4,0-0.7-0.3-0.7-0.7s0.3-0.7,0.7-0.7h6.8c0.4,0,0.7,0.3,0.7,0.7S17,19,16.6,19z"/>
<path class="st2" d="M25.4,19h-6.1c-0.4,0-0.7-0.3-0.7-0.7s0.3-0.7,0.7-0.7h6.1c0.4,0,0.7,0.3,0.7,0.7S25.7,19,25.4,19z"/>
<path class="st3" d="M28.4,38H1.3c-0.5,0-1-0.4-1-1V26.5h29.1V37C29.4,37.6,29,38,28.4,38z"/>
<g id="Group" transform="translate(6.090226, 28.500000)">
	<path class="st4" d="M5.8,3.9c0,0.6-0.1,1-0.2,1.4C5.5,5.7,5.3,6,5.1,6.3C4.9,6.6,4.7,6.8,4.5,6.9C4.3,7.1,4,7.2,3.8,7.3
		C3.6,7.4,3.4,7.4,3.2,7.4c-0.2,0-0.3,0-0.4,0H0.2V0.6h2.1c0.6,0,1.1,0.1,1.5,0.3s0.8,0.4,1.1,0.7c0.3,0.3,0.5,0.6,0.6,1
		C5.7,3,5.8,3.4,5.8,3.9z M2.5,6.6c0.8,0,1.3-0.2,1.6-0.7c0.3-0.5,0.5-1.2,0.5-2.1c0-0.3,0-0.6-0.1-0.8C4.4,2.7,4.3,2.5,4.1,2.2
		C3.9,2,3.6,1.8,3.3,1.7S2.5,1.5,2,1.5H1.4v5.2H2.5L2.5,6.6z"/>
	<path class="st4" d="M12.5,4c0,0.6-0.1,1.1-0.2,1.5c-0.1,0.4-0.3,0.8-0.6,1.1c-0.3,0.3-0.6,0.5-0.9,0.7s-0.7,0.2-1.1,0.2
		S8.9,7.4,8.5,7.3C8.2,7.1,7.9,6.9,7.6,6.6S7.2,6,7,5.5C6.9,5.1,6.8,4.6,6.8,4S6.9,2.9,7,2.5c0.1-0.4,0.3-0.8,0.6-1.1
		c0.3-0.3,0.6-0.5,0.9-0.7c0.3-0.2,0.7-0.2,1.1-0.2s0.8,0.1,1.1,0.2s0.6,0.4,0.9,0.7s0.5,0.7,0.6,1.1C12.4,2.9,12.5,3.4,12.5,4z
		 M9.6,6.6c0.2,0,0.4,0,0.7-0.1c0.2-0.1,0.4-0.2,0.6-0.4c0.2-0.2,0.3-0.5,0.4-0.8c0.1-0.3,0.1-0.7,0.1-1.2c0-0.5-0.1-0.9-0.1-1.2
		C11.1,2.5,11,2.2,10.9,2s-0.3-0.4-0.5-0.5c-0.2-0.1-0.4-0.1-0.6-0.1c-0.2,0-0.4,0-0.7,0.1C8.8,1.7,8.6,1.8,8.5,2
		C8.3,2.2,8.2,2.5,8.1,2.8C8,3.1,8,3.5,7.9,4C8,4.5,8,4.9,8.1,5.2C8.2,5.5,8.3,5.8,8.5,6C8.6,6.2,8.8,6.4,9,6.5
		C9.2,6.6,9.4,6.6,9.6,6.6z"/>
	<path class="st4" d="M18.7,6.8c-0.3,0.2-0.5,0.4-0.9,0.6c-0.3,0.1-0.7,0.2-1,0.2c-0.4,0-0.8-0.1-1.1-0.2c-0.3-0.1-0.6-0.4-0.9-0.7
		S14.3,6,14.2,5.5C14,5.1,13.9,4.6,13.9,4s0.1-1.1,0.2-1.5c0.1-0.4,0.3-0.8,0.6-1.1c0.3-0.3,0.6-0.5,0.9-0.7
		c0.3-0.2,0.7-0.2,1.1-0.2c0.4,0,0.7,0.1,1,0.2c0.3,0.1,0.6,0.3,0.9,0.6l-0.8,0.7c-0.2-0.2-0.3-0.3-0.5-0.4S17,1.4,16.8,1.4
		c-0.2,0-0.4,0-0.7,0.1C16,1.7,15.8,1.8,15.6,2c-0.2,0.2-0.3,0.5-0.4,0.8c-0.1,0.3-0.1,0.7-0.1,1.2c0,0.5,0.1,0.9,0.1,1.2
		c0.1,0.3,0.2,0.6,0.4,0.8c0.2,0.2,0.3,0.4,0.5,0.5c0.2,0.1,0.4,0.1,0.6,0.1c0.2,0,0.4,0,0.6-0.1c0.2-0.1,0.4-0.2,0.5-0.4L18.7,6.8z
		"/>
</g>
</svg>
