<?xml version="1.0" encoding="utf-8"?>
<!-- Generator: Adobe Illustrator 23.0.2, SVG Export Plug-In . SVG Version: 6.00 Build 0)  -->
<svg version="1.1" id="Layer_1" xmlns="http://www.w3.org/2000/svg" xmlns:xlink="http://www.w3.org/1999/xlink" x="0px" y="0px"
	 viewBox="0 0 14 11" style="enable-background:new 0 0 14 11;" xml:space="preserve">
<style type="text/css">
	.st0{fill-rule:evenodd;clip-rule:evenodd;fill:#BF2C37;}
</style>
<path id="email" class="st0" d="M12.3,2.7V1.4L7,4.7L1.7,1.4v1.3L7,6.1L12.3,2.7z M12.3,0.1c0.4,0,0.7,0.1,0.9,0.4
	c0.3,0.3,0.4,0.6,0.4,0.9v8c0,0.4-0.1,0.7-0.4,0.9c-0.3,0.3-0.6,0.4-0.9,0.4H1.7c-0.4,0-0.7-0.1-0.9-0.4S0.3,9.8,0.3,9.4v-8
	c0-0.4,0.1-0.7,0.4-0.9s0.6-0.4,0.9-0.4H12.3z"/>
</svg>
