<?xml version="1.0" encoding="utf-8"?>
<!-- Generator: Adobe Illustrator 23.0.2, SVG Export Plug-In . SVG Version: 6.00 Build 0)  -->
<svg version="1.1" id="Layer_1" xmlns="http://www.w3.org/2000/svg" xmlns:xlink="http://www.w3.org/1999/xlink" x="0px" y="0px"
	 viewBox="0 0 22 22" style="enable-background:new 0 0 22 22;" xml:space="preserve">
<style type="text/css">
	.st0{fill:#013264;}
</style>
<path class="st0" d="M3.4,8.5C4,8.7,4.5,9,4.9,9.5c0.4,0.5,0.6,1,0.6,1.6c0,0.6-0.2,1.2-0.6,1.6S4,13.5,3.4,13.7V21
	c0,0.2-0.1,0.3-0.2,0.5s-0.3,0.2-0.5,0.2s-0.3-0.1-0.5-0.2S2.1,21.2,2.1,21v-7.4c-0.6-0.2-1.1-0.5-1.5-0.9S0,11.7,0,11.1
	c0-0.6,0.2-1.2,0.6-1.6C1,9,1.5,8.7,2.1,8.5V1.2c0-0.2,0.1-0.3,0.2-0.5s0.3-0.2,0.5-0.2s0.3,0.1,0.5,0.2S3.4,1,3.4,1.2V8.5z
	 M2.8,12.4c0.4,0,0.7-0.1,1-0.4c0.3-0.3,0.4-0.6,0.4-0.9c0-0.4-0.1-0.7-0.4-0.9s-0.6-0.4-1-0.4s-0.7,0.1-1,0.4s-0.4,0.6-0.4,0.9
	c0,0.4,0.1,0.7,0.4,0.9C2,12.3,2.4,12.4,2.8,12.4z M11.7,12.5c0.6,0.2,1.1,0.5,1.5,0.9c0.4,0.5,0.6,1,0.6,1.6s-0.2,1.2-0.6,1.6
	c-0.4,0.5-0.9,0.8-1.5,0.9V21c0,0.2-0.1,0.3-0.2,0.5s-0.3,0.2-0.5,0.2s-0.3-0.1-0.5-0.2s-0.2-0.3-0.2-0.5v-3.4
	c-0.6-0.2-1.1-0.5-1.5-0.9c-0.4-0.5-0.6-1-0.6-1.6s0.2-1.2,0.6-1.6c0.4-0.5,0.9-0.8,1.5-0.9V1.2c0-0.2,0.1-0.3,0.2-0.5
	s0.3-0.2,0.5-0.2s0.3,0.1,0.5,0.2s0.2,0.3,0.2,0.5V12.5z M11,16.4c0.4,0,0.7-0.1,1-0.4c0.3-0.3,0.4-0.6,0.4-0.9
	c0-0.4-0.1-0.7-0.4-0.9s-0.6-0.4-1-0.4s-0.7,0.1-1,0.4s-0.4,0.6-0.4,0.9c0,0.4,0.1,0.7,0.4,0.9C10.3,16.3,10.6,16.4,11,16.4z
	 M19.9,4.6C20.5,4.7,21,5,21.4,5.5C21.8,6,22,6.5,22,7.1s-0.2,1.2-0.6,1.6c-0.4,0.5-0.9,0.8-1.5,0.9V21c0,0.2-0.1,0.3-0.2,0.5
	s-0.3,0.2-0.5,0.2s-0.3-0.1-0.5-0.2s-0.2-0.3-0.2-0.5V9.7c-0.6-0.2-1.1-0.5-1.5-0.9c-0.4-0.5-0.6-1-0.6-1.6s0.2-1.2,0.6-1.6
	C17.5,5,18,4.7,18.6,4.6V1.2c0-0.2,0.1-0.3,0.2-0.5s0.3-0.2,0.5-0.2s0.3,0.1,0.5,0.2s0.2,0.3,0.2,0.5V4.6z M19.2,8.5
	c0.4,0,0.7-0.1,1-0.4c0.3-0.3,0.4-0.6,0.4-0.9s-0.1-0.7-0.4-0.9c-0.3-0.3-0.6-0.4-1-0.4s-0.7,0.1-1,0.4c-0.3,0.3-0.4,0.6-0.4,0.9
	s0.1,0.7,0.4,0.9C18.5,8.3,18.9,8.5,19.2,8.5z"/>
</svg>
