<?xml version="1.0" encoding="utf-8"?>
<!-- Generator: Adobe Illustrator 23.0.2, SVG Export Plug-In . SVG Version: 6.00 Build 0)  -->
<svg version="1.1" id="Layer_1" xmlns="http://www.w3.org/2000/svg" xmlns:xlink="http://www.w3.org/1999/xlink" x="0px" y="0px"
	 viewBox="0 0 30 38" style="enable-background:new 0 0 30 38;" xml:space="preserve">
<style type="text/css">
	.st0{fill:#EEEEEE;}
	.st1{fill:#50AF69;}
	.st2{fill-rule:evenodd;clip-rule:evenodd;fill:#FFFFFF;}
	.st3{fill:none;stroke:#A9B8D0;}
	.st4{fill:#C2CBDA;}
</style>
<path id="Shape" class="st0" d="M21,0H1.3c-0.5,0-1,0.4-1,1.3v36c0,0.2,0.4,0.7,1,0.7h27.1c0.5,0,1-0.4,1-0.7V8.8
	c0-0.5-0.1-0.6-0.2-0.7l-7.9-7.9C21.3,0.1,21.1,0,21,0z"/>
<path class="st1" d="M28.1,37.5H1c-0.5,0-1-0.4-1-1V26h29.1v10.5C29.1,37.1,28.7,37.5,28.1,37.5z"/>
<path id="XLS" class="st2" d="M8.4,31.4l-2.1-3.2h1.5l1.4,2.3l1.4-2.3h1.4l-2.1,3.2l2.5,3.6h-1.5l-1.7-2.7L7.5,35H6L8.4,31.4z
	 M13.1,28.2h1.2V34h2.9V35h-4.1V28.2z M21.6,29.6c-0.1-0.2-0.3-0.3-0.5-0.4c-0.2-0.1-0.5-0.2-0.7-0.2c-0.1,0-0.3,0-0.4,0.1
	s-0.3,0.1-0.4,0.2c-0.1,0.1-0.2,0.2-0.3,0.3c-0.1,0.1-0.1,0.3-0.1,0.4c0,0.2,0,0.3,0.1,0.4c0.1,0.1,0.2,0.2,0.3,0.3
	c0.1,0.1,0.3,0.1,0.4,0.2c0.2,0.1,0.3,0.1,0.5,0.2c0.2,0.1,0.4,0.2,0.7,0.2c0.2,0.1,0.5,0.2,0.6,0.4s0.4,0.3,0.5,0.6
	c0.1,0.2,0.2,0.5,0.2,0.8c0,0.4-0.1,0.7-0.2,1s-0.3,0.5-0.5,0.7c-0.2,0.2-0.5,0.3-0.8,0.4c-0.3,0.1-0.6,0.1-1,0.1
	c-0.4,0-0.9-0.1-1.3-0.2c-0.4-0.2-0.8-0.4-1-0.7l0.9-0.8c0.2,0.2,0.4,0.4,0.7,0.6c0.3,0.1,0.6,0.2,0.8,0.2c0.1,0,0.3,0,0.4-0.1
	c0.1,0,0.3-0.1,0.4-0.2c0.1-0.1,0.2-0.2,0.3-0.3c0.1-0.1,0.1-0.3,0.1-0.5c0-0.2,0-0.3-0.1-0.5c-0.1-0.1-0.2-0.2-0.3-0.3
	c-0.1-0.1-0.3-0.2-0.5-0.2L19.6,32c-0.2-0.1-0.4-0.1-0.6-0.2c-0.2-0.1-0.4-0.2-0.6-0.4c-0.2-0.1-0.3-0.3-0.4-0.5s-0.2-0.5-0.2-0.8
	c0-0.3,0.1-0.6,0.2-0.9c0.1-0.3,0.3-0.5,0.6-0.6c0.2-0.2,0.5-0.3,0.8-0.4C19.7,28,20,28,20.4,28c0.3,0,0.7,0.1,1.1,0.2
	c0.4,0.1,0.7,0.3,0.9,0.6L21.6,29.6z"/>
<g id="Group-2" transform="translate(4.000000, 8.000000)">
	<polygon id="Path-2" class="st3" points="0.5,0 0.5,14 21.5,14 21.5,0 	"/>
	<path id="Path-3" class="st3" d="M0.5,3.5h21"/>
	<path class="st3" d="M0.5,7.5h21"/>
	<path class="st3" d="M0.5,10.5h21"/>
	<path id="Path-4" class="st3" d="M4.5,0v14"/>
	<path id="Path-5" class="st3" d="M12.5,0.5v3"/>
	<path id="Path-6" class="st3" d="M12.5,8v5.5"/>
</g>
<polygon class="st4" points="21.3,0.1 21.3,8.1 29.3,8.1 "/>
</svg>
