<?xml version="1.0" encoding="utf-8"?>
<!-- Generator: Adobe Illustrator 23.0.2, SVG Export Plug-In . SVG Version: 6.00 Build 0)  -->
<svg version="1.1" id="Layer_1" xmlns="http://www.w3.org/2000/svg" xmlns:xlink="http://www.w3.org/1999/xlink" x="0px" y="0px"
	 viewBox="0 0 24 19" style="enable-background:new 0 0 24 19;" xml:space="preserve">
<style type="text/css">
	.st0{fill:#013264;}
</style>
<path class="st0" d="M22.5,2.5c0.4,0,0.8,0.1,1.1,0.4S24,3.6,24,4v13.4c0,0.4-0.1,0.8-0.4,1.1c-0.3,0.3-0.6,0.4-1.1,0.4h-21
	c-0.4,0-0.8-0.1-1.1-0.4C0.1,18.1,0,17.8,0,17.4V1.8C0,1.3,0.1,1,0.4,0.7s0.6-0.4,1.1-0.4H9l2.2,2.2H22.5z M1.5,1.8v3.7h21V4H10.6
	l-0.5-0.4L8.3,1.8H1.5z M1.5,17.4h21V7h-21V17.4z"/>
</svg>
