<?xml version="1.0" encoding="utf-8"?>
<!-- Generator: Adobe Illustrator 23.0.2, SVG Export Plug-In . SVG Version: 6.00 Build 0)  -->
<svg version="1.1" id="Layer_1" xmlns="http://www.w3.org/2000/svg" xmlns:xlink="http://www.w3.org/1999/xlink" x="0px" y="0px"
	 viewBox="0 0 20 19" style="enable-background:new 0 0 20 19;" xml:space="preserve">
<style type="text/css">
	.st0{fill:#FFFFFF;}
</style>
<path class="st0" d="M10,3.8c0.7,0,1.3,0.2,1.9,0.5c0.6,0.3,1,0.8,1.4,1.4c0.3,0.6,0.5,1.2,0.5,1.9c0,0.5-0.2,1-0.5,1.4
	c-0.2,0.3-0.5,0.6-1,1c-0.5,0.4-0.8,0.7-1,1c-0.3,0.4-0.5,0.8-0.5,1.3H9.1c0-0.6,0.1-1,0.3-1.5c0.2-0.3,0.4-0.6,0.7-0.9
	c0.1-0.1,0.4-0.3,0.8-0.7c0.3-0.3,0.6-0.5,0.7-0.7c0.2-0.3,0.3-0.6,0.3-0.9c0-0.5-0.2-0.9-0.6-1.3C11,5.8,10.5,5.6,10,5.6
	S9,5.8,8.7,6.2C8.3,6.5,8.1,7,8.1,7.5H6.2c0-0.7,0.2-1.3,0.5-1.9c0.3-0.6,0.8-1,1.4-1.4C8.7,3.9,9.3,3.8,10,3.8z M10,16.8
	c1.4,0,2.7-0.3,3.8-1c1.2-0.7,2.1-1.6,2.7-2.7c0.7-1.2,1.1-2.4,1.1-3.8s-0.4-2.6-1.1-3.8c-0.7-1.1-1.6-2-2.7-2.7
	c-1.2-0.7-2.5-1-3.8-1s-2.7,0.3-3.8,1C5,3.6,4.1,4.5,3.4,5.6C2.7,6.8,2.4,8,2.4,9.4s0.4,2.6,1.1,3.8c0.7,1.1,1.6,2,2.7,2.7
	C7.3,16.5,8.6,16.8,10,16.8z M10,0c1.7,0,3.3,0.4,4.8,1.3c1.4,0.8,2.6,1.9,3.4,3.3c0.9,1.4,1.3,3,1.3,4.7s-0.4,3.3-1.3,4.7
	c-0.8,1.4-2,2.5-3.4,3.3c-1.5,0.9-3.1,1.3-4.8,1.3s-3.3-0.4-4.8-1.3c-1.4-0.8-2.6-1.9-3.4-3.3c-0.9-1.4-1.3-3-1.3-4.7
	s0.4-3.3,1.3-4.7c0.8-1.4,2-2.5,3.4-3.3C6.7,0.5,8.3,0,10,0z M9.1,15v-1.9h1.9V15H9.1z"/>
</svg>
