<?xml version="1.0" encoding="utf-8"?>
<!-- Generator: Adobe Illustrator 23.0.2, SVG Export Plug-In . SVG Version: 6.00 Build 0)  -->
<svg version="1.1" id="Layer_1" xmlns="http://www.w3.org/2000/svg" xmlns:xlink="http://www.w3.org/1999/xlink" x="0px" y="0px"
	 viewBox="0 0 21 22" style="enable-background:new 0 0 21 22;" xml:space="preserve">
<style type="text/css">
	.st0{fill-rule:evenodd;clip-rule:evenodd;fill:#FFFFFF;}
</style>
<path class="st0" d="M20.9,10.8C21,11,21,11.1,21,11.3s-0.1,0.3-0.2,0.5c-0.1,0.1-0.1,0.1-0.2,0.1S20.5,12,20.4,12
	c-0.1,0-0.2,0-0.3-0.1s-0.2-0.1-0.2-0.2L19,10.8v9.8c0,0.2-0.1,0.3-0.2,0.5s-0.3,0.2-0.5,0.2h-4.6c-0.2,0-0.3-0.1-0.5-0.2
	s-0.2-0.3-0.2-0.5v-6.6H7.9l0,6.6c0,0.2-0.1,0.3-0.2,0.5s-0.3,0.2-0.5,0.2H2.6c-0.2,0-0.3-0.1-0.5-0.2S2,20.8,2,20.7v-9.8l-0.9,0.9
	C1,11.9,0.8,11.9,0.6,12s-0.3-0.1-0.5-0.2C0,11.6,0,11.5,0,11.3S0,11,0.1,10.8L10,0.5c0.1-0.1,0.1-0.1,0.2-0.2s0.2-0.1,0.2-0.1
	c0.1,0,0.2,0,0.3,0.1s0.2,0.1,0.2,0.2L20.9,10.8z M17.7,9.6C17.7,9.5,17.7,9.5,17.7,9.6l-7.2-7.6L3.3,9.5c0,0,0,0.1,0,0.1
	s0,0.1,0,0.1V20h3.3l0-6.6c0-0.2,0.1-0.3,0.2-0.5s0.3-0.2,0.5-0.2h6.5c0.2,0,0.3,0.1,0.5,0.2s0.2,0.3,0.2,0.5V20h3.3V9.6z"/>
</svg>
