<?xml version="1.0" encoding="utf-8"?>
<!-- Generator: Adobe Illustrator 23.0.2, SVG Export Plug-In . SVG Version: 6.00 Build 0)  -->
<svg version="1.1" id="Layer_1" xmlns="http://www.w3.org/2000/svg" xmlns:xlink="http://www.w3.org/1999/xlink" x="0px" y="0px"
	 viewBox="0 0 16 16" style="enable-background:new 0 0 16 16;" xml:space="preserve">
<style type="text/css">
	.st0{fill:#013264;}
</style>
<path class="st0" d="M9,11.5c0.1,0,0.3,0,0.4,0.1s0.1,0.2,0.1,0.4s0,0.3-0.1,0.4S9.1,12.5,9,12.5H7c-0.1,0-0.3,0-0.4-0.1
	S6.5,12.1,6.5,12s0-0.3,0.1-0.4s0.2-0.1,0.4-0.1h0.5v-4H7c-0.1,0-0.3,0-0.4-0.1S6.5,7.1,6.5,7s0-0.3,0.1-0.4S6.9,6.5,7,6.5h1
	c0.1,0,0.3,0,0.4,0.1S8.5,6.9,8.5,7v4.5H9z M8,5.5c-0.3,0-0.5-0.1-0.7-0.3S7,4.8,7,4.5S7.1,4,7.3,3.8S7.7,3.5,8,3.5
	c0.3,0,0.5,0.1,0.7,0.3S9,4.2,9,4.5S8.9,5,8.7,5.2S8.3,5.5,8,5.5z M8,0c1.1,0,2.1,0.2,3.1,0.6s1.8,1,2.5,1.7s1.3,1.6,1.7,2.5
	S16,6.9,16,8s-0.2,2.1-0.6,3.1s-1,1.8-1.7,2.5s-1.6,1.3-2.5,1.7S9.1,16,8,16s-2.1-0.2-3.1-0.6s-1.8-1-2.5-1.7S1,12.1,0.6,11.1
	S0,9.1,0,8s0.2-2.1,0.6-3.1s1-1.8,1.7-2.5S3.9,1,4.9,0.6S6.9,0,8,0z M8,15c1,0,1.9-0.2,2.7-0.6s1.6-0.9,2.2-1.5s1.1-1.4,1.5-2.2
	S15,9,15,8s-0.2-1.9-0.6-2.7s-0.9-1.6-1.5-2.2s-1.4-1.1-2.2-1.5S9,1,8,1S6.1,1.2,5.3,1.6S3.7,2.4,3.1,3.1S1.9,4.4,1.6,5.3S1,7,1,8
	s0.2,1.9,0.6,2.7s0.9,1.6,1.5,2.2s1.4,1.1,2.2,1.5S7,15,8,15z"/>
</svg>
