<?xml version="1.0" encoding="utf-8"?>
<!-- Generator: Adobe Illustrator 23.0.2, SVG Export Plug-In . SVG Version: 6.00 Build 0)  -->
<svg version="1.1" id="Layer_1" xmlns="http://www.w3.org/2000/svg" xmlns:xlink="http://www.w3.org/1999/xlink" x="0px" y="0px"
	 viewBox="0 0 30 38" style="enable-background:new 0 0 30 38;" xml:space="preserve">
<style type="text/css">
	.st0{fill:#EEEEEE;}
	.st1{fill:#D1D7E0;}
	.st2{fill:#F3D55B;}
	.st3{fill:#26B99A;}
	.st4{fill:#14A085;}
	.st5{fill:#FFFFFF;}
</style>
<path id="Shape" class="st0" d="M21.1,0H1.3c-0.6,0-1,0.4-1,1.3v35.9c0,0.2,0.4,0.7,1,0.7h27.3c0.6,0,1-0.4,1-0.7V8.8
	c0-0.5-0.1-0.6-0.2-0.7l-7.9-7.9C21.4,0.1,21.3,0,21.1,0z"/>
<polygon class="st1" points="21.5,0.1 21.5,8.1 29.6,8.1 "/>
<ellipse id="Oval" class="st2" cx="8.8" cy="9.8" rx="3.1" ry="3.1"/>
<polygon class="st3" points="0.3,26.4 7.8,26.4 29.7,26.4 29.7,19 22.8,12.5 15.7,20.3 11.9,16.6 "/>
<path class="st4" d="M28.7,37.9H1.3c-0.6,0-1-0.4-1-1V26.4h29.3v10.5C29.7,37.5,29.2,37.9,28.7,37.9z"/>
<g id="Group" transform="translate(6.136364, 28.429975)">
	<path class="st5" d="M4.4,0.4v5.3c0,0.3-0.1,0.6-0.2,0.8C4.1,6.8,3.9,7,3.7,7.1C3.5,7.2,3.3,7.3,3,7.4C2.8,7.4,2.5,7.4,2.2,7.4
		c-0.1,0-0.3,0-0.5,0c-0.2,0-0.4-0.1-0.6-0.1S0.8,7.1,0.6,7.1C0.5,7,0.3,6.9,0.2,6.8l0.5-0.7c0.1,0,0.2,0.1,0.3,0.1
		c0.1,0,0.2,0.1,0.4,0.1c0.1,0,0.3,0.1,0.4,0.1s0.3,0,0.4,0c0.3,0,0.6-0.1,0.8-0.2S3.2,6,3.2,5.7V0.4H4.4z"/>
	<path class="st5" d="M7.2,7.4H6V0.6h2c0.3,0,0.6,0,0.9,0.1s0.5,0.2,0.8,0.4s0.4,0.4,0.6,0.7s0.2,0.6,0.2,0.9c0,0.3-0.1,0.7-0.2,0.9
		S10,4.1,9.8,4.3C9.5,4.5,9.3,4.7,9,4.8C8.7,4.9,8.4,4.9,8,4.9H7.2L7.2,7.4L7.2,7.4z M7.2,1.4v2.7h1c0.1,0,0.3,0,0.4-0.1
		C8.7,4,8.9,3.9,9,3.8s0.2-0.3,0.3-0.4C9.3,3.2,9.3,3,9.3,2.7c0-0.1,0-0.2,0-0.4c0-0.1-0.1-0.3-0.2-0.4C9,1.8,8.9,1.6,8.7,1.6
		C8.5,1.5,8.3,1.4,8,1.4H7.2z"/>
	<path class="st5" d="M16.7,3.9v2.6c-0.1,0.2-0.3,0.3-0.5,0.4c-0.2,0.1-0.4,0.2-0.6,0.3c-0.2,0.1-0.4,0.1-0.6,0.2
		c-0.2,0-0.4,0-0.6,0c-0.4,0-0.8-0.1-1.1-0.2c-0.3-0.1-0.6-0.4-0.9-0.7c-0.3-0.3-0.5-0.7-0.6-1.1C11.7,5,11.6,4.5,11.6,4
		s0.1-1.1,0.2-1.5c0.1-0.4,0.3-0.8,0.6-1.1c0.3-0.3,0.6-0.5,0.9-0.7c0.3-0.2,0.7-0.2,1.1-0.2c0.4,0,0.7,0.1,1,0.2
		c0.3,0.1,0.6,0.3,0.9,0.6l-0.8,0.7c-0.1-0.2-0.3-0.3-0.5-0.4c-0.2-0.1-0.4-0.1-0.6-0.1c-0.2,0-0.4,0-0.7,0.1
		c-0.2,0.1-0.4,0.2-0.6,0.4c-0.2,0.2-0.3,0.5-0.4,0.8c-0.1,0.3-0.1,0.7-0.1,1.2c0,0.5,0.1,0.9,0.1,1.2s0.2,0.6,0.4,0.8
		c0.2,0.2,0.3,0.4,0.5,0.5c0.2,0.1,0.4,0.2,0.6,0.2c0.1,0,0.2,0,0.3,0c0.1,0,0.2,0,0.3,0c0.1,0,0.2-0.1,0.3-0.1
		c0.1,0,0.2-0.1,0.2-0.2V4.6h-1.2V3.9L16.7,3.9L16.7,3.9z"/>
</g>
</svg>
