<?xml version="1.0" encoding="utf-8"?>
<!-- Generator: Adobe Illustrator 23.0.2, SVG Export Plug-In . SVG Version: 6.00 Build 0)  -->
<svg version="1.1" id="Layer_1" xmlns="http://www.w3.org/2000/svg" xmlns:xlink="http://www.w3.org/1999/xlink" x="0px" y="0px"
	 viewBox="0 0 365 370" style="enable-background:new 0 0 365 370;" xml:space="preserve">
<style type="text/css">
	.st0{fill-rule:evenodd;clip-rule:evenodd;fill:#9CB5C7;fill-opacity:0.15;}
</style>
<path class="st0" d="M76.7,184.8c0-1.2,0-2.4,0-3.6c0-27.6,10.4-54.3,29.3-74.4L67.3,68l-0.7,0.7c-30.7,30.8-48,72.6-48,116.1
	s17.3,85.3,48,116.1l0.7,0.7l38.7-38.9c-18.9-20.1-29.4-46.7-29.3-74.4C76.7,187.1,76.7,185.9,76.7,184.8z M60.4,61.1l-8.7-8.7
	C18.5,87-0.1,133.1,0,181.2c0,1.2,0,2.4,0,3.6c0,1.2,0,2.4,0,3.6c-0.1,48,18.5,94.2,51.8,128.8l8.7-8.7
	c-33-32.7-51.6-77.2-51.6-123.7S27.5,93.8,60.4,61.1L60.4,61.1z M306.4,178l-7.7,19.3h15.2L306.4,178z M182.4,94.5
	c31.9,0,61.4,17,77.6,44.6h11.1C250.1,98,203.7,76.7,159,87.6s-76.3,51-76.3,97.1s31.5,86.3,76.3,97.1s91.1-10.4,112.1-51.5H260
	c-22.1,37.7-67.9,54-108.8,38.9c-40.9-15.1-65.1-57.5-57.4-100.5S138.8,94.5,182.4,94.5z M364.8,183.8L364.8,183.8
	C364.3,82.2,281.5,0,179.5,0c-43-0.1-84.7,14.9-117.9,42.3l9,9.5C141-7.7,245.4-1.7,308.6,65.4s63.1,171.9-0.1,238.9
	s-167.7,72.8-238,13.3l-8.9,9.4c55.2,45.7,131.7,55.4,196.5,25c64.8-30.4,106.4-95.5,106.7-167.2l0,0L364.8,183.8L364.8,183.8z
	 M182.4,349c66.3,0,126-40,151.4-101.4s11.3-132-35.5-179c-60-60.1-155.9-64.4-221-9.8l37.1,39.2c27.3-20.4,62.6-26.8,95.3-17.3
	s59.1,33.7,71.4,65.6h-98.7l0,0c-20.9,0-37.8,17.6-37.8,38.4c0,10.1,4,19.7,11.1,26.8c7.1,7.1,16.7,11.1,26.8,11.1
	c1.3,0,2.7,0,4-0.2h94.7c-12.1,32-38.5,56.4-71.3,65.9c-32.8,9.5-68.1,3.1-95.4-17.4l-37.3,39.6C106.6,335.4,143.9,349.1,182.4,349z
	 M182.6,161.2L182.6,161.2h11.2v16.6H211v-16.5h11.4V207H211v-18.9h-17.1V207h-11.4l0,0L182.6,161.2z M272.4,172.3h-15.2V207h-11.4
	v-34.8h-15.9v-10.9h42.5V172.3z M280.1,207v-9.6h6.9l15.7-36h7.4l16,36h7v9.6H280.1L280.1,207z"/>
</svg>
