<?xml version="1.0" encoding="utf-8"?>
<!-- Generator: Adobe Illustrator 23.0.2, SVG Export Plug-In . SVG Version: 6.00 Build 0)  -->
<svg version="1.1" id="Layer_1" xmlns="http://www.w3.org/2000/svg" xmlns:xlink="http://www.w3.org/1999/xlink" x="0px" y="0px"
	 viewBox="0 0 60 61" style="enable-background:new 0 0 60 61;" xml:space="preserve">
<style type="text/css">
	.st0{fill-rule:evenodd;clip-rule:evenodd;fill:url(#Path_1_);}
	.st1{fill-rule:evenodd;clip-rule:evenodd;fill:url(#SVGID_1_);}
	.st2{fill-rule:evenodd;clip-rule:evenodd;fill:url(#SVGID_2_);}
	.st3{fill-rule:evenodd;clip-rule:evenodd;fill:url(#SVGID_3_);}
	.st4{fill-rule:evenodd;clip-rule:evenodd;fill:url(#SVGID_4_);}
	.st5{fill:url(#Shape_1_);}
</style>
<linearGradient id="Path_1_" gradientUnits="userSpaceOnUse" x1="-255.3222" y1="417.5275" x2="-255.3222" y2="416.5275" gradientTransform="matrix(14.3395 0 0 -38.5326 3671.396 16099.6152)">
	<stop  offset="0" style="stop-color:#EE292E"/>
	<stop  offset="1" style="stop-color:#AA1E2E"/>
</linearGradient>
<path id="Path" class="st0" d="M12.6,30.5c0-0.2,0-0.4,0-0.6c0-4.6,1.7-8.9,4.8-12.3L11,11.2l-0.1,0.1c-5,5.1-7.9,12-7.9,19.2
	s2.8,14.1,7.9,19.2l0.1,0.1l6.3-6.4c-3.1-3.3-4.8-7.7-4.8-12.3C12.6,30.9,12.6,30.7,12.6,30.5z"/>
<linearGradient id="SVGID_1_" gradientUnits="userSpaceOnUse" x1="-246.748" y1="418.6399" x2="-246.748" y2="417.6399" gradientTransform="matrix(9.9092 0 0 -43.6595 2450.031 18286.2539)">
	<stop  offset="0" style="stop-color:#EE292E"/>
	<stop  offset="1" style="stop-color:#AA1E2E"/>
</linearGradient>
<path class="st1" d="M9.9,10.1L8.5,8.6C3,14.3,0,22,0,29.9c0,0.2,0,0.4,0,0.6c0,0.2,0,0.4,0,0.6C0,39,3,46.6,8.5,52.3l1.4-1.4
	c-5.4-5.4-8.5-12.7-8.5-20.4S4.5,15.5,9.9,10.1L9.9,10.1z"/>
<linearGradient id="SVGID_2_" gradientUnits="userSpaceOnUse" x1="-164.2495" y1="312.2285" x2="-164.2495" y2="311.2285" gradientTransform="matrix(2.4943 0 0 -3.1802 459.8969 1022.3159)">
	<stop  offset="0" style="stop-color:#92A0B6"/>
	<stop  offset="0.99" style="stop-color:#434B63"/>
</linearGradient>
<polygon class="st2" points="50.2,29.4 49,32.5 51.5,32.5 "/>
<linearGradient id="SVGID_3_" gradientUnits="userSpaceOnUse" x1="-265.5969" y1="415.9268" x2="-265.5969" y2="414.9268" gradientTransform="matrix(30.8882 0 0 -32.9624 8232.8242 13723.9414)">
	<stop  offset="0" style="stop-color:#92A0B6"/>
	<stop  offset="0.99" style="stop-color:#434B63"/>
</linearGradient>
<path class="st3" d="M29.9,15.6c5.2,0,10.1,2.8,12.7,7.3h1.8c-3.4-6.8-11-10.3-18.4-8.5s-12.5,8.4-12.5,16s5.2,14.2,12.5,16
	c7.3,1.8,14.9-1.7,18.4-8.5h-1.8c-3.6,6.2-11.1,8.9-17.8,6.4c-6.7-2.5-10.7-9.5-9.4-16.6S22.8,15.6,29.9,15.6z"/>
<linearGradient id="SVGID_4_" gradientUnits="userSpaceOnUse" x1="-268.9683" y1="421.0096" x2="-268.9683" y2="420.0096" gradientTransform="matrix(49.7135 0 0 -60.9305 13406.3154 25652.3438)">
	<stop  offset="0" style="stop-color:#92A0B6"/>
	<stop  offset="0.99" style="stop-color:#434B63"/>
</linearGradient>
<path class="st4" d="M59.8,30.3L59.8,30.3C59.7,13.6,46.2,0,29.4,0c-7.1,0-13.9,2.5-19.3,7l1.5,1.6c11.5-9.8,28.7-8.8,39,2.2
	s10.3,28.4,0,39.4s-27.5,12-39,2.2l-1.5,1.6c9,7.5,21.6,9.1,32.2,4.1s17.4-15.7,17.5-27.6l0,0L59.8,30.3L59.8,30.3z"/>
<linearGradient id="Shape_1_" gradientUnits="userSpaceOnUse" x1="-268.2679" y1="420.2596" x2="-268.2679" y2="419.2596" gradientTransform="matrix(44.1265 0 0 -54.1515 11872.4248 22761.082)">
	<stop  offset="0" style="stop-color:#92A0B6"/>
	<stop  offset="0.99" style="stop-color:#434B63"/>
</linearGradient>
<path id="Shape" class="st5" d="M29.9,57.5c10.9,0,20.7-6.6,24.8-16.7s1.9-21.8-5.8-29.5C39.1,1.4,23.3,0.7,12.7,9.7l6.1,6.5
	c4.5-3.4,10.3-4.4,15.6-2.9s9.7,5.6,11.7,10.8H29.9l0,0c-3.4,0-6.2,2.9-6.2,6.3c0,1.7,0.7,3.2,1.8,4.4c1.2,1.2,2.7,1.8,4.4,1.8
	c0.2,0,0.4,0,0.7,0h15.5c-2,5.3-6.3,9.3-11.7,10.9c-5.4,1.6-11.2,0.5-15.6-2.9l-6.1,6.5C17.5,55.3,23.6,57.6,29.9,57.5z M29.9,26.6
	L29.9,26.6h1.8v2.7h2.8v-2.7h1.9v7.5h-1.9V31h-2.8v3.1h-1.9l0,0L29.9,26.6z M44.7,28.4h-2.5v5.7h-1.9v-5.7h-2.6v-1.8h7V28.4z
	 M45.9,34.1v-1.6H47l2.6-5.9h1.2l2.6,5.9h1.1v1.6H45.9L45.9,34.1z"/>
</svg>
