<?xml version="1.0" encoding="utf-8"?>
<!-- Generator: Adobe Illustrator 23.0.2, SVG Export Plug-In . SVG Version: 6.00 Build 0)  -->
<svg version="1.1" id="Layer_1" xmlns="http://www.w3.org/2000/svg" xmlns:xlink="http://www.w3.org/1999/xlink" x="0px" y="0px"
	 viewBox="0 0 16 16" style="enable-background:new 0 0 16 16;" xml:space="preserve">
<style type="text/css">
	.st0{fill-rule:evenodd;clip-rule:evenodd;fill:#013264;}
</style>
<path class="st0" d="M2.4,8.5l1.7,1.7c0.1,0.1,0.1,0.2,0.1,0.3s0,0.2-0.1,0.3c0,0-0.1,0.1-0.2,0.1s-0.1,0-0.2,0s-0.1,0-0.2,0
	s-0.1-0.1-0.2-0.1L0.7,8l2.8-2.8C3.6,5.1,3.7,5,3.8,5s0.2,0,0.3,0.1c0.1,0.1,0.1,0.2,0.1,0.3s0,0.2-0.1,0.3L2.4,7.5h8.1
	c0.1,0,0.2,0,0.3,0.1C10.9,7.8,11,7.9,11,8c0,0.1,0,0.2-0.1,0.3c-0.1,0.1-0.2,0.1-0.3,0.1H2.4z M14.8,0.5c0.3,0,0.5,0.1,0.7,0.3
	s0.3,0.4,0.3,0.7v13.1c0,0.3-0.1,0.5-0.3,0.7s-0.4,0.3-0.7,0.3h-8c-0.3,0-0.5-0.1-0.7-0.3c-0.2-0.2-0.3-0.4-0.3-0.7v-4.2h0.9V14
	c0,0.2,0.1,0.3,0.2,0.4c0.1,0.1,0.2,0.2,0.4,0.2h6.8c0.2,0,0.3-0.1,0.4-0.2c0.1-0.1,0.2-0.2,0.2-0.4l0-12c0-0.2-0.1-0.3-0.2-0.4
	c-0.1-0.1-0.2-0.2-0.4-0.2H7.4C7.2,1.4,7.1,1.5,7,1.6C6.8,1.7,6.8,1.9,6.8,2v3.6H5.8V1.4c0-0.3,0.1-0.5,0.3-0.7
	c0.2-0.2,0.4-0.3,0.7-0.3H14.8z"/>
</svg>
