<?xml version="1.0" encoding="utf-8"?>
<!-- Generator: Adobe Illustrator 23.0.2, SVG Export Plug-In . SVG Version: 6.00 Build 0)  -->
<svg version="1.1" id="Layer_1" xmlns="http://www.w3.org/2000/svg" xmlns:xlink="http://www.w3.org/1999/xlink" x="0px" y="0px"
	 viewBox="0 0 17 16" style="enable-background:new 0 0 17 16;" xml:space="preserve">
<style type="text/css">
	.st0{fill:#013264;}
</style>
<path class="st0" d="M13.5,15V8.6l1-1V15c0,0.3-0.1,0.5-0.3,0.7C14,15.9,13.8,16,13.5,16H2c-0.3,0-0.5-0.1-0.7-0.3
	C1.1,15.5,1,15.3,1,15V2.5C1,2.2,1.1,2,1.3,1.8C1.5,1.6,1.7,1.5,2,1.5h8l0,0l-1,1H2V15H13.5z M16.2,0.6c0.3,0.2,0.5,0.5,0.6,0.8
	C16.9,1.7,17,1.9,17,2.2C17,2.5,17,2.8,16.8,3c-0.1,0.3-0.3,0.5-0.6,0.8C16.1,4,15.7,4.4,15,5.1c-0.7,0.7-1.5,1.4-2.3,2.2
	s-1.6,1.5-2.2,2.2c-0.7,0.7-1.1,1.1-1.1,1.1c0,0-0.1,0-0.1,0.1c0,0-0.1,0-0.1,0c-0.1,0-0.4,0.1-0.8,0.2c-0.4,0.1-0.8,0.3-1.2,0.4
	c-0.4,0.1-0.8,0.2-1.1,0.4c-0.3,0.1-0.5,0.2-0.5,0.2c0,0,0,0-0.1,0c0,0,0,0-0.1,0c-0.1,0-0.1,0-0.2,0c-0.1,0-0.1-0.1-0.1-0.1
	c-0.1-0.1-0.1-0.1-0.1-0.2c0-0.1,0-0.2,0-0.2c0,0,0-0.2,0.1-0.5c0.1-0.3,0.2-0.7,0.3-1.1C5.7,9.4,5.8,9,5.9,8.6
	C6,8.2,6.1,7.9,6.2,7.7c0,0,0-0.1,0-0.1s0-0.1,0.1-0.1C7.7,6.2,8.8,5,9.6,4.2c0.8-0.8,1.6-1.6,2.3-2.3c0.7-0.7,1.1-1.1,1.2-1.2
	c0.1-0.1,0.3-0.2,0.6-0.4C14,0.1,14.3,0,14.7,0c0.3,0,0.5,0.1,0.8,0.2S16,0.4,16.2,0.6z M15.5,3.1c0.2-0.2,0.3-0.3,0.4-0.5
	C16,2.5,16,2.4,16,2.2C16,2.1,16,2,15.9,1.8c-0.1-0.1-0.2-0.3-0.4-0.4c-0.1-0.1-0.3-0.2-0.4-0.3C15,1,14.9,1,14.7,1
	c-0.2,0-0.4,0.1-0.6,0.2s-0.3,0.2-0.3,0.2c-0.1,0.1-0.4,0.4-1,1c-0.6,0.6-1.3,1.3-2.1,2.1C9.9,5.3,9.2,6.1,8.5,6.8
	C7.8,7.5,7.3,7.9,7.1,8.1C7,8.4,6.9,8.8,6.8,9.2c-0.1,0.5-0.3,0.9-0.4,1.4c0.4-0.1,0.9-0.3,1.3-0.4C8.2,10,8.5,9.9,8.8,9.8l0.3-0.3
	c1-1,1.9-1.9,2.7-2.6c0.8-0.8,1.4-1.4,2-2c0.5-0.5,1-1,1.3-1.3C15.3,3.4,15.5,3.2,15.5,3.1z"/>
</svg>
