<?xml version="1.0" encoding="utf-8"?>
<!-- Generator: Adobe Illustrator 23.0.2, SVG Export Plug-In . SVG Version: 6.00 Build 0)  -->
<svg version="1.1" id="Layer_1" xmlns="http://www.w3.org/2000/svg" xmlns:xlink="http://www.w3.org/1999/xlink" x="0px" y="0px"
	 viewBox="0 0 4 13.6" style="enable-background:new 0 0 4 13.6;" xml:space="preserve">
<style type="text/css">
	.st0{fill:#013264;}
</style>
<path class="st0" d="M3.8,11.9c0,0.9-0.8,1.7-1.7,1.7s-1.7-0.8-1.7-1.7s0.8-1.7,1.7-1.7S3.8,11,3.8,11.9z M2.1,0
	C1.1,0,0.4,0.8,0.4,1.7s0.8,1.7,1.7,1.7s1.7-0.8,1.7-1.7S3,0,2.1,0z M2.1,5.1c-0.9,0-1.7,0.8-1.7,1.7s0.8,1.7,1.7,1.7
	s1.7-0.8,1.7-1.7S3,5.1,2.1,5.1z"/>
</svg>
