<?xml version="1.0" encoding="utf-8"?>
<!-- Generator: Adobe Illustrator 23.0.2, SVG Export Plug-In . SVG Version: 6.00 Build 0)  -->
<svg version="1.1" id="Layer_1" xmlns="http://www.w3.org/2000/svg" xmlns:xlink="http://www.w3.org/1999/xlink" x="0px" y="0px"
	 viewBox="0 0 30 38" style="enable-background:new 0 0 30 38;" xml:space="preserve">
<style type="text/css">
	.st0{fill:#EEEEEE;}
	.st1{fill:#C2CBDA;}
	.st2{fill:#853245;}
	.st3{fill:#FFFFFF;}
</style>
<path id="Shape" class="st0" d="M21,0H1.3c-0.5,0-1,0.4-1,1.3v36c0,0.2,0.4,0.7,1,0.7h27.1c0.5,0,1-0.4,1-0.7V8.8
	c0-0.5-0.1-0.6-0.2-0.7l-7.9-7.9C21.3,0.1,21.1,0,21,0z"/>
<polygon class="st1" points="21.3,0.1 21.3,8.1 29.3,8.1 "/>
<path class="st2" d="M9.1,22.6L9.1,22.6c-0.2,0-0.5-0.1-0.7-0.2c-0.7-0.5-0.8-1.1-0.8-1.5c0.1-1.1,1.5-2.3,4.1-3.4
	c1-2.2,2-5,2.6-7.3c-0.7-1.5-1.3-3.4-0.9-4.5c0.2-0.4,0.4-0.7,0.8-0.8c0.2-0.1,0.5-0.1,0.7-0.1c0.3,0,0.6,0.4,0.9,0.7
	c0.2,0.3,0.7,0.8-0.3,4.6c0.9,1.9,2.2,3.8,3.4,5.1c0.9-0.2,1.7-0.2,2.3-0.2c1.1,0,1.7,0.2,2,0.8c0.2,0.4,0.1,0.9-0.3,1.5
	c-0.4,0.5-0.9,0.8-1.5,0.8c-0.8,0-1.8-0.5-2.8-1.6c-1.9,0.4-4.2,1.1-6,1.9c-0.6,1.2-1.1,2.2-1.6,2.9C10.3,22.2,9.7,22.6,9.1,22.6z
	 M10.9,19.1c-1.4,0.8-2,1.5-2.1,1.9c0,0.1,0,0.2,0.3,0.5C9.3,21.4,9.8,21.2,10.9,19.1z M20.2,16.1c0.6,0.4,0.7,0.6,1,0.6
	c0.2,0,0.6,0,0.8-0.3c0.1-0.1,0.1-0.2,0.2-0.3c-0.1,0-0.2-0.1-0.8-0.1C21.1,16,20.6,16.1,20.2,16.1z M15.1,11.7
	c-0.5,1.7-1.1,3.5-1.8,5.1c1.4-0.6,3-1,4.4-1.4C16.8,14.4,15.9,13,15.1,11.7z M14.7,5.9c-0.1,0-0.9,1.2,0.1,2.2
	C15.4,6.7,14.7,5.9,14.7,5.9z"/>
<path class="st2" d="M28.4,38H1.3c-0.5,0-1-0.4-1-1V26.5h29.1V37C29.4,37.6,29,38,28.4,38z"/>
<g id="Group" transform="translate(6.090226, 28.500000)">
	<path class="st3" d="M1.6,7.5H0.5V0.6h2c0.3,0,0.6,0,0.9,0.1S3.9,1,4.1,1.2c0.2,0.2,0.4,0.4,0.5,0.7s0.2,0.6,0.2,0.9
		c0,0.3-0.1,0.7-0.2,0.9S4.4,4.2,4.2,4.4C4,4.6,3.7,4.7,3.4,4.8C3.1,4.9,2.8,5,2.4,5H1.6L1.6,7.5L1.6,7.5z M1.6,1.5v2.7h1
		c0.1,0,0.3,0,0.4-0.1c0.1,0,0.3-0.1,0.4-0.2s0.2-0.3,0.3-0.4C3.7,3.3,3.8,3,3.8,2.7c0-0.1,0-0.2,0-0.4c0-0.1-0.1-0.3-0.2-0.4
		C3.4,1.8,3.3,1.7,3.1,1.6C3,1.5,2.7,1.5,2.4,1.5L1.6,1.5L1.6,1.5z"/>
	<path class="st3" d="M11.7,3.9c0,0.6-0.1,1-0.2,1.4c-0.1,0.4-0.3,0.7-0.5,1s-0.4,0.5-0.6,0.6c-0.2,0.2-0.5,0.3-0.7,0.3
		C9.5,7.4,9.3,7.4,9.1,7.4c-0.2,0-0.3,0-0.4,0H6.1V0.6h2.1c0.6,0,1.1,0.1,1.5,0.3s0.8,0.4,1.1,0.7c0.3,0.3,0.5,0.6,0.6,1
		C11.6,3,11.7,3.4,11.7,3.9z M8.4,6.6c0.8,0,1.3-0.2,1.6-0.7c0.3-0.5,0.5-1.2,0.5-2.1c0-0.3,0-0.6-0.1-0.8c-0.1-0.3-0.2-0.5-0.4-0.8
		C9.8,2,9.5,1.8,9.2,1.7C8.9,1.5,8.4,1.5,7.9,1.5H7.3v5.2H8.4L8.4,6.6z"/>
	<polygon class="st3" points="14.4,1.5 14.4,3.6 17.2,3.6 17.2,4.4 14.4,4.4 14.4,7.5 13.3,7.5 13.3,0.6 17.5,0.6 17.5,1.5 	"/>
</g>
</svg>
