<?xml version="1.0" encoding="utf-8"?>
<!-- Generator: Adobe Illustrator 23.0.2, SVG Export Plug-In . SVG Version: 6.00 Build 0)  -->
<svg version="1.1" id="Layer_1" xmlns="http://www.w3.org/2000/svg" xmlns:xlink="http://www.w3.org/1999/xlink" x="0px" y="0px"
	 viewBox="0 0 30 38" style="enable-background:new 0 0 30 38;" xml:space="preserve">
<style type="text/css">
	.st0{fill:#EEEEEE;}
	.st1{fill:#C2CBDA;}
	.st2{fill:#D4AF3B;}
	.st3{fill:#FFFFFF;}
	.st4{fill:#C8BDB8;}
	.st5{fill:#D3CCC9;}
</style>
<path id="Shape" class="st0" d="M20.9,0H1.3c-0.5,0-1,0.4-1,1.3v35.9c0,0.2,0.4,0.7,1,0.7h27c0.5,0,1-0.4,1-0.7V8.8
	c0-0.5-0.1-0.6-0.2-0.7l-7.9-7.9C21.2,0.1,21.1,0,20.9,0z"/>
<polygon class="st1" points="21.3,0.1 21.3,8.1 29.3,8.1 "/>
<path class="st2" d="M28.4,37.9h-27c-0.5,0-1-0.4-1-1V26.4h29v10.5C29.4,37.5,28.9,37.9,28.4,37.9z"/>
<g id="Group" transform="translate(6.073022, 28.421053)">
	<path class="st3" d="M1.7,7.4H0.6V0.6h2c0.3,0,0.6,0,0.9,0.1S4,1,4.2,1.2c0.2,0.2,0.4,0.4,0.5,0.7S5,2.4,5,2.7
		c0,0.3-0.1,0.7-0.2,0.9S4.5,4.2,4.3,4.4S3.8,4.7,3.5,4.8C3.2,4.9,2.9,5,2.6,5H1.7L1.7,7.4L1.7,7.4z M1.7,1.5v2.7h1
		c0.1,0,0.3,0,0.4-0.1c0.1,0,0.3-0.1,0.4-0.2s0.2-0.3,0.3-0.4C3.9,3.2,3.9,3,3.9,2.7c0-0.1,0-0.2,0-0.4c0-0.1-0.1-0.3-0.2-0.4
		C3.6,1.8,3.4,1.7,3.3,1.6C3.1,1.5,2.9,1.5,2.6,1.5L1.7,1.5L1.7,1.5z"/>
	<path class="st3" d="M7.3,7.4H6.2V0.6h2c0.3,0,0.6,0,0.9,0.1C9.3,0.9,9.6,1,9.8,1.2s0.4,0.4,0.5,0.7c0.1,0.3,0.2,0.6,0.2,0.9
		c0,0.3-0.1,0.7-0.2,0.9C10.3,4,10.1,4.2,9.9,4.4S9.4,4.7,9.1,4.8C8.8,4.9,8.5,5,8.1,5H7.3L7.3,7.4L7.3,7.4z M7.3,1.5v2.7h1
		c0.1,0,0.3,0,0.4-0.1C8.9,4.1,9,4,9.1,3.9c0.1-0.1,0.2-0.3,0.3-0.4C9.4,3.2,9.5,3,9.5,2.7c0-0.1,0-0.2,0-0.4c0-0.1-0.1-0.3-0.2-0.4
		C9.1,1.8,9,1.7,8.8,1.6C8.7,1.5,8.4,1.5,8.2,1.5L7.3,1.5L7.3,1.5z"/>
	<polygon class="st3" points="16.6,0.6 16.6,1.4 14.6,1.4 14.6,7.4 13.5,7.4 13.5,1.4 11.4,1.4 11.4,0.6 	"/>
</g>
<path class="st4" d="M22.6,20.3H6.4V9.5h16.2V20.3z M7.8,18.9h13.5v-8.1H7.8V18.9z"/>
<path class="st4" d="M9.8,23.7c-0.1,0-0.2,0-0.3-0.1C9.1,23.4,9,23,9.2,22.7l2-3.4c0.2-0.3,0.6-0.4,0.9-0.2s0.4,0.6,0.2,0.9l-2,3.4
	C10.2,23.6,10,23.7,9.8,23.7z"/>
<path class="st4" d="M19.2,23.7c-0.2,0-0.5-0.1-0.6-0.3l-2-3.4c-0.2-0.3-0.1-0.7,0.2-0.9c0.3-0.2,0.7-0.1,0.9,0.2l2,3.4
	c0.2,0.3,0.1,0.7-0.2,0.9C19.5,23.7,19.3,23.7,19.2,23.7z"/>
<path class="st4" d="M14.5,10.8c-0.4,0-0.7-0.3-0.7-0.7v-2c0-0.4,0.3-0.7,0.7-0.7s0.7,0.3,0.7,0.7v2C15.2,10.5,14.9,10.8,14.5,10.8z
	"/>
<rect id="Rectangle-path" x="7.8" y="10.8" class="st5" width="13.5" height="8.1"/>
</svg>
