<?xml version="1.0" encoding="utf-8"?>
<!-- Generator: Adobe Illustrator 23.0.2, SVG Export Plug-In . SVG Version: 6.00 Build 0)  -->
<svg version="1.1" id="Layer_1" xmlns="http://www.w3.org/2000/svg" xmlns:xlink="http://www.w3.org/1999/xlink" x="0px" y="0px"
	 viewBox="0 0 14 14" style="enable-background:new 0 0 14 14;" xml:space="preserve">
<style type="text/css">
	.st0{fill:#013264;}
</style>
<path class="st0" d="M13,3.5c0.3,0,0.5,0.1,0.7,0.3C13.9,4,14,4.2,14,4.5v5.9c0,0.3-0.1,0.5-0.3,0.7c-0.2,0.2-0.4,0.3-0.7,0.3h-1.7
	V14H2.6v-2.6H1c-0.3,0-0.5-0.1-0.7-0.3C0.1,10.9,0,10.7,0,10.4V4.5C0,4.2,0.1,4,0.3,3.8S0.7,3.5,1,3.5h1.7V0h8.8v3.5H13z M3.5,0.9
	v2.6h7V0.9H3.5z M10.5,13.1V8.3h-7v4.8H10.5z M13.1,10.4V4.5c0,0,0-0.1,0-0.1s0,0-0.1,0H1c0,0-0.1,0-0.1,0s0,0,0,0.1v5.9
	c0,0,0,0.1,0,0.1s0,0,0.1,0h1.7V7.4h8.8v3.1H13C13.1,10.5,13.1,10.5,13.1,10.4C13.1,10.4,13.1,10.4,13.1,10.4z M11.4,5.2
	c0.1,0,0.2,0,0.3,0.1s0.1,0.2,0.1,0.3c0,0.1,0,0.2-0.1,0.3s-0.2,0.1-0.3,0.1h-0.4c-0.1,0-0.2,0-0.3-0.1s-0.1-0.2-0.1-0.3
	c0-0.1,0-0.2,0.1-0.3s0.2-0.1,0.3-0.1H11.4z"/>
</svg>
