<?xml version="1.0" encoding="utf-8"?>
<!-- Generator: Adobe Illustrator 23.0.2, SVG Export Plug-In . SVG Version: 6.00 Build 0)  -->
<svg version="1.1" id="Layer_1" xmlns="http://www.w3.org/2000/svg" xmlns:xlink="http://www.w3.org/1999/xlink" x="0px" y="0px"
	 viewBox="0 0 49 21" style="enable-background:new 0 0 49 21;" xml:space="preserve">
<style type="text/css">
	.st0{fill-rule:evenodd;clip-rule:evenodd;fill:#BF2C37;}
</style>
<path id="RZD" class="st0" d="M34.6,1.9c-0.1-0.5,0.1-1,0.5-1.4C35.5,0.1,36,0,36.5,0h4.7c1.7,0,4.3,0,6,1.7C49,3.3,49,5.8,49,6.7
	v2.7c0,0.9,0,3.3-1.7,5C45.6,16,43,16,41.3,16h-3c-1.2,0.1-2.4,0-3.5-0.4c-0.9-0.6-1.7-1.3-2.3-2.2l-0.7-0.9
	c-0.5-0.5-0.8-1.1-0.9-1.8c0.1-0.7,0.4-1.3,0.9-1.8l2.7-3.5h6.9L37,11.1c-0.5,0.4-0.6,1-0.5,1.6c0.3,0.6,1,0.6,1.6,0.6h3.3
	c0.6,0.1,1.2-0.1,1.6-0.4c0.4-0.4,0.5-1,0.5-1.6V4.7c0.1-0.6-0.1-1.1-0.5-1.6c-0.4-0.4-1-0.5-1.6-0.5h-6.9V1.9z M27.2,5H34l-8.2,11
	H19L27.2,5z M0,6.9c-0.1-0.5,0.1-1,0.5-1.4C0.9,5.1,1.4,5,2,5h11.6c1.2-0.1,2.4,0,3.5,0.4c0.9,0.6,1.7,1.3,2.3,2.2l0.7,0.9
	c0.5,0.5,0.8,1.1,0.9,1.8c-0.1,0.7-0.4,1.3-0.9,1.8l-2.8,3.6h-6.9l4.5-5.8c0.5-0.4,0.7-1,0.5-1.6c-0.3-0.6-1-0.6-1.6-0.6H8.3V21H2.8
	V7.7H0V6.9z"/>
</svg>
