<?xml version="1.0" encoding="utf-8"?>
<!-- Generator: Adobe Illustrator 23.0.2, SVG Export Plug-In . SVG Version: 6.00 Build 0)  -->
<svg version="1.1" id="Layer_1" xmlns="http://www.w3.org/2000/svg" xmlns:xlink="http://www.w3.org/1999/xlink" x="0px" y="0px"
	 viewBox="0 0 16 16" style="enable-background:new 0 0 16 16;" xml:space="preserve">
<style type="text/css">
	.st0{fill-rule:evenodd;clip-rule:evenodd;fill:#013264;}
</style>
<path id="search---anticon" class="st0" d="M15.8,14.9c0.1,0.1,0.2,0.3,0.2,0.5c0,0.2-0.1,0.3-0.2,0.5c-0.1,0.1-0.3,0.2-0.5,0.2
	c-0.2,0-0.3-0.1-0.4-0.2l-3.7-3.7c-1.3,1-2.7,1.6-4.4,1.6c-1.9,0-3.5-0.7-4.8-2s-2-3-2-4.8S0.7,3.3,2,2s3-2,4.8-2s3.5,0.7,4.8,2
	s2,3,2,4.8c0,1.6-0.5,3.1-1.6,4.4L15.8,14.9z M9,12c0.7-0.3,1.3-0.7,1.8-1.2c0.5-0.5,0.9-1.1,1.2-1.8c0.3-0.7,0.4-1.4,0.4-2.2
	S12.3,5.4,12,4.7c-0.3-0.7-0.7-1.3-1.2-1.8C10.3,2.4,9.7,2,9,1.7C8.3,1.4,7.6,1.3,6.9,1.3S5.4,1.4,4.7,1.7C4,2,3.4,2.4,2.9,2.9
	S2,4,1.7,4.7C1.4,5.4,1.3,6.1,1.3,6.9S1.4,8.3,1.7,9c0.3,0.7,0.7,1.3,1.2,1.8C3.4,11.3,4,11.7,4.7,12c0.7,0.3,1.4,0.4,2.2,0.4
	S8.3,12.3,9,12z"/>
</svg>
