<?xml version="1.0" encoding="utf-8"?>
<!-- Generator: Adobe Illustrator 23.0.2, SVG Export Plug-In . SVG Version: 6.00 Build 0)  -->
<svg version="1.1" id="Layer_1" xmlns="http://www.w3.org/2000/svg" xmlns:xlink="http://www.w3.org/1999/xlink" x="0px" y="0px"
	 viewBox="0 0 16 17" style="enable-background:new 0 0 16 17;" xml:space="preserve">
<style type="text/css">
	.st0{fill:#013264;}
</style>
<path id="Settings" class="st0" d="M9.5,15.7c0,0.2-0.2,0.5-0.4,0.7c-0.2,0.2-0.4,0.3-0.7,0.3h-1c-0.3,0-0.5-0.1-0.7-0.3
	c-0.2-0.2-0.3-0.4-0.3-0.7l-0.3-1.3c-0.2-0.1-0.3-0.1-0.4-0.2S5.4,14.1,5.3,14l-1.2,0.7c-0.2,0.1-0.4,0.2-0.7,0.2s-0.5-0.1-0.7-0.2
	L2,14c-0.2-0.2-0.3-0.4-0.3-0.7s0.1-0.5,0.2-0.7l0.7-1.1c-0.1-0.1-0.1-0.3-0.2-0.4c-0.1-0.1-0.1-0.3-0.2-0.5L1,10.3
	c-0.2,0-0.5-0.2-0.7-0.4C0.1,9.7,0,9.5,0,9.2v-1c0-0.3,0.1-0.5,0.3-0.7C0.5,7.4,0.8,7.3,1,7.2l1.3-0.3c0.1-0.2,0.1-0.3,0.2-0.5
	s0.1-0.3,0.2-0.5L2,4.7C1.8,4.5,1.7,4.3,1.7,4S1.8,3.5,2,3.3l0.7-0.7c0.2-0.2,0.4-0.3,0.7-0.2s0.5,0.1,0.7,0.2l1.2,0.7
	c0.1-0.1,0.3-0.1,0.4-0.2S6,3,6.1,3l0.3-1.3C6.5,1.5,6.6,1.2,6.8,1C7,0.8,7.2,0.7,7.5,0.7h1C8.7,0.7,9,0.8,9.2,1
	c0.2,0.2,0.3,0.4,0.4,0.7L9.8,3c0.1,0,0.3,0.1,0.4,0.2c0.1,0.1,0.3,0.1,0.4,0.2l1.2-0.7c0.2-0.1,0.4-0.2,0.7-0.2s0.5,0,0.7,0.2
	L14,3.3c0.2,0.2,0.3,0.4,0.3,0.7S14.2,4.5,14,4.7l-0.7,1.2c0.1,0.2,0.2,0.3,0.2,0.5c0.1,0.2,0.1,0.3,0.2,0.5L15,7.2
	c0.2,0.1,0.5,0.2,0.7,0.3S16,7.9,16,8.2v1c0,0.3-0.1,0.5-0.3,0.7s-0.4,0.3-0.7,0.4l-1.3,0.3c-0.1,0.2-0.1,0.3-0.2,0.5
	c-0.1,0.2-0.1,0.3-0.2,0.4l0.7,1.1c0.1,0.2,0.2,0.5,0.2,0.7S14.2,13.8,14,14l-0.7,0.7c-0.2,0.2-0.4,0.3-0.7,0.2s-0.5-0.1-0.7-0.2
	L10.7,14c-0.1,0.1-0.3,0.1-0.4,0.2s-0.3,0.1-0.5,0.2L9.5,15.7z M7.5,15.7l0.9,0c0,0,0,0,0.1-0.1s0-0.1,0.1-0.1L9,13.6l0.5-0.2
	c0.1,0,0.2-0.1,0.4-0.1s0.3-0.1,0.4-0.2l0.5-0.2l1.6,1c0,0,0.1,0.1,0.1,0.1s0.1,0,0.1,0l0.6-0.7c0,0,0-0.1,0-0.1s0-0.1,0-0.1l-1-1.6
	l0.3-0.5c0.1-0.1,0.1-0.2,0.2-0.4s0.1-0.3,0.1-0.4l0.2-0.5l1.9-0.4c0,0,0.1,0,0.1,0l0.1,0V8.3c0,0-0.1,0-0.1-0.1s-0.1,0-0.2,0
	l-1.8-0.5l-0.2-0.5c0-0.1-0.1-0.3-0.1-0.4s-0.1-0.3-0.2-0.4l-0.3-0.5l1.1-1.7l0-0.1c0,0,0-0.1,0-0.1l-0.7-0.7c0,0-0.1,0-0.1,0
	s-0.1,0-0.1,0.1l-1.7,1l-0.5-0.2C10.1,4.2,10,4.1,9.8,4.1C9.7,4,9.6,4,9.5,3.9L9,3.8L8.5,1.9c0,0,0-0.1,0-0.1s0-0.1,0-0.1H7.5
	c0,0,0,0.1-0.1,0.1s0,0.1,0,0.2L7,3.8L6.4,3.9C6.3,4,6.2,4,6.1,4.1C6,4.1,5.9,4.2,5.8,4.2L5.3,4.5l-1.7-1c0,0-0.1-0.1-0.1-0.1
	s-0.1,0-0.1,0L2.7,4c0,0,0,0.1,0,0.1s0,0.1,0.1,0.1l1,1.6L3.6,6.4C3.5,6.5,3.4,6.6,3.4,6.8S3.3,7,3.2,7.2L3.1,7.7L1.2,8.2
	c-0.1,0-0.1,0-0.1,0c0,0-0.1,0-0.1,0.1v0.9c0,0,0,0,0.1,0.1s0.1,0,0.1,0.1l1.9,0.4l0.2,0.5c0,0.1,0.1,0.2,0.1,0.4
	c0.1,0.1,0.1,0.2,0.2,0.4l0.3,0.5l-1,1.6l0,0.1c0,0,0,0.1,0,0.1L3.4,14c0,0,0.1,0,0.1,0s0.1,0,0.1-0.1l1.6-1l0.5,0.2
	c0.1,0.1,0.2,0.1,0.4,0.2c0.1,0,0.2,0.1,0.4,0.1L7,13.6l0.5,1.9C7.4,15.5,7.5,15.6,7.5,15.7C7.5,15.7,7.5,15.7,7.5,15.7z M11,8.7
	c0,0.8-0.3,1.5-0.9,2.1c-0.6,0.6-1.3,0.9-2.1,0.9c-0.8,0-1.5-0.3-2.1-0.9C5.3,10.2,5,9.5,5,8.7c0-0.8,0.3-1.5,0.9-2.1
	C6.5,6,7.2,5.7,8,5.7c0.8,0,1.5,0.3,2.1,0.9C10.7,7.2,11,7.9,11,8.7z M6,8.7c0,0.6,0.2,1,0.6,1.4s0.9,0.6,1.4,0.6s1-0.2,1.4-0.6
	S10,9.3,10,8.7s-0.2-1-0.6-1.4S8.6,6.7,8,6.7S7,6.9,6.6,7.3S6,8.1,6,8.7z"/>
</svg>
