<?xml version="1.0" encoding="utf-8"?>
<!-- Generator: Adobe Illustrator 23.0.2, SVG Export Plug-In . SVG Version: 6.00 Build 0)  -->
<svg version="1.1" id="Layer_1" xmlns="http://www.w3.org/2000/svg" xmlns:xlink="http://www.w3.org/1999/xlink" x="0px" y="0px"
	 viewBox="0 0 15 12" style="enable-background:new 0 0 15 12;" xml:space="preserve">
<style type="text/css">
	.st0{fill:#013264;}
</style>
<path class="st0" d="M4.3,9.6v1.6c0,0.2-0.1,0.4-0.2,0.6C3.9,11.9,3.7,12,3.5,12H0.8c-0.2,0-0.4-0.1-0.6-0.2S0,11.4,0,11.2V9.6
	C0,9.4,0.1,9.2,0.2,9s0.3-0.2,0.6-0.2h2.7c0.2,0,0.4,0.1,0.6,0.2C4.2,9.2,4.3,9.4,4.3,9.6z M4.3,5.3v1.6c0,0.2-0.1,0.4-0.2,0.6
	C3.9,7.6,3.7,7.7,3.5,7.7H0.8c-0.2,0-0.4-0.1-0.6-0.2C0.1,7.3,0,7.1,0,6.9V5.3c0-0.2,0.1-0.4,0.2-0.6s0.3-0.2,0.6-0.2h2.7
	c0.2,0,0.4,0.1,0.6,0.2C4.2,4.9,4.3,5.1,4.3,5.3z M9.6,9.6v1.6c0,0.2-0.1,0.4-0.2,0.6C9.3,11.9,9.1,12,8.8,12H6.2
	c-0.2,0-0.4-0.1-0.6-0.2c-0.2-0.2-0.2-0.3-0.2-0.6V9.6c0-0.2,0.1-0.4,0.2-0.6c0.2-0.2,0.3-0.2,0.6-0.2h2.7c0.2,0,0.4,0.1,0.6,0.2
	C9.6,9.2,9.6,9.4,9.6,9.6z M4.3,1v1.6c0,0.2-0.1,0.4-0.2,0.6C3.9,3.4,3.7,3.4,3.5,3.4H0.8c-0.2,0-0.4-0.1-0.6-0.2S0,2.8,0,2.6V1
	c0-0.2,0.1-0.4,0.2-0.6s0.3-0.2,0.6-0.2h2.7c0.2,0,0.4,0.1,0.6,0.2C4.2,0.6,4.3,0.8,4.3,1z M9.6,5.3v1.6c0,0.2-0.1,0.4-0.2,0.6
	C9.3,7.6,9.1,7.7,8.8,7.7H6.2c-0.2,0-0.4-0.1-0.6-0.2C5.4,7.3,5.4,7.1,5.4,6.9V5.3c0-0.2,0.1-0.4,0.2-0.6c0.2-0.2,0.3-0.2,0.6-0.2
	h2.7c0.2,0,0.4,0.1,0.6,0.2C9.6,4.9,9.6,5.1,9.6,5.3z M15,9.6v1.6c0,0.2-0.1,0.4-0.2,0.6S14.4,12,14.2,12h-2.7
	c-0.2,0-0.4-0.1-0.6-0.2s-0.2-0.3-0.2-0.6V9.6c0-0.2,0.1-0.4,0.2-0.6s0.3-0.2,0.6-0.2h2.7c0.2,0,0.4,0.1,0.6,0.2S15,9.4,15,9.6z
	 M9.6,1v1.6c0,0.2-0.1,0.4-0.2,0.6C9.3,3.4,9.1,3.4,8.8,3.4H6.2c-0.2,0-0.4-0.1-0.6-0.2C5.4,3,5.4,2.8,5.4,2.6V1
	c0-0.2,0.1-0.4,0.2-0.6c0.2-0.2,0.3-0.2,0.6-0.2h2.7c0.2,0,0.4,0.1,0.6,0.2C9.6,0.6,9.6,0.8,9.6,1z M15,5.3v1.6
	c0,0.2-0.1,0.4-0.2,0.6c-0.2,0.2-0.3,0.2-0.6,0.2h-2.7c-0.2,0-0.4-0.1-0.6-0.2c-0.2-0.2-0.2-0.3-0.2-0.6V5.3c0-0.2,0.1-0.4,0.2-0.6
	s0.3-0.2,0.6-0.2h2.7c0.2,0,0.4,0.1,0.6,0.2S15,5.1,15,5.3z M15,1v1.6c0,0.2-0.1,0.4-0.2,0.6s-0.3,0.2-0.6,0.2h-2.7
	c-0.2,0-0.4-0.1-0.6-0.2s-0.2-0.3-0.2-0.6V1c0-0.2,0.1-0.4,0.2-0.6s0.3-0.2,0.6-0.2h2.7c0.2,0,0.4,0.1,0.6,0.2S15,0.8,15,1z"/>
</svg>
