<?xml version="1.0" encoding="utf-8"?>
<!-- Generator: Adobe Illustrator 23.0.2, SVG Export Plug-In . SVG Version: 6.00 Build 0)  -->
<svg version="1.1" id="Layer_1" xmlns="http://www.w3.org/2000/svg" xmlns:xlink="http://www.w3.org/1999/xlink" x="0px" y="0px"
	 viewBox="0 0 30 38" style="enable-background:new 0 0 30 38;" xml:space="preserve">
<style type="text/css">
	.st0{fill:#EEEEEE;}
	.st1{fill:#D1D7E0;}
	.st2{fill:#8870A7;}
	.st3{fill:#FFFFFF;}
	.st4{fill:#C8BDB8;}
</style>
<path id="Shape" class="st0" d="M21.1,0H1.3c-0.6,0-1,0.4-1,1.3v36c0,0.2,0.4,0.7,1,0.7h27.3c0.6,0,1-0.4,1-0.7V8.8
	c0-0.5-0.1-0.6-0.2-0.7l-7.9-7.9C21.4,0.1,21.3,0,21.1,0z"/>
<polygon class="st1" points="21.5,0.1 21.5,8.1 29.6,8.1 "/>
<path class="st2" d="M28.7,38H1.3c-0.6,0-1-0.4-1-1V26.5h29.3V37C29.7,37.6,29.2,38,28.7,38z"/>
<g id="Group" transform="translate(5.454545, 28.500000)">
	<polygon class="st3" points="5.4,0.6 5.4,1.4 3.3,1.4 3.3,7.5 2.2,7.5 2.2,1.4 0.1,1.4 0.1,0.6 	"/>
	<polygon class="st3" points="9.8,4.1 11.6,7.5 10.3,7.5 9.2,4.9 9.1,4.9 7.9,7.5 6.6,7.5 8.4,4.1 6.5,0.6 7.8,0.6 9,3.4 9.1,3.4 
		10.4,0.6 11.7,0.6 	"/>
	<polygon class="st3" points="18.1,0.6 18.1,1.4 16,1.4 16,7.5 14.9,7.5 14.9,1.4 12.9,1.4 12.9,0.6 	"/>
</g>
<path class="st4" d="M8.5,8.8H4.4c-0.4,0-0.7-0.3-0.7-0.7c0-0.4,0.3-0.7,0.7-0.7h4.1c0.4,0,0.7,0.3,0.7,0.7C9.2,8.5,8.9,8.8,8.5,8.8
	z"/>
<path class="st4" d="M10.6,12.2H4.4c-0.4,0-0.7-0.3-0.7-0.7c0-0.4,0.3-0.7,0.7-0.7h6.1c0.4,0,0.7,0.3,0.7,0.7
	C11.2,11.9,10.9,12.2,10.6,12.2z"/>
<path class="st4" d="M13.3,12.2c-0.2,0-0.4-0.1-0.5-0.2c-0.1-0.1-0.2-0.3-0.2-0.5s0.1-0.4,0.2-0.5c0.2-0.3,0.7-0.3,1,0
	c0.1,0.1,0.2,0.3,0.2,0.5s-0.1,0.4-0.2,0.5C13.6,12.1,13.5,12.2,13.3,12.2z"/>
<path class="st4" d="M21.5,12.2H16c-0.4,0-0.7-0.3-0.7-0.7c0-0.4,0.3-0.7,0.7-0.7h5.5c0.4,0,0.7,0.3,0.7,0.7
	C22.2,11.9,21.9,12.2,21.5,12.2z"/>
<path class="st4" d="M4.4,22.4c-0.2,0-0.4-0.1-0.5-0.2c-0.1-0.1-0.2-0.3-0.2-0.5c0-0.2,0.1-0.4,0.2-0.5c0.3-0.3,0.7-0.3,1,0
	c0.1,0.1,0.2,0.3,0.2,0.5c0,0.2-0.1,0.4-0.2,0.5C4.8,22.3,4.6,22.4,4.4,22.4z"/>
<path class="st4" d="M12.6,22.4H7.2c-0.4,0-0.7-0.3-0.7-0.7c0-0.4,0.3-0.7,0.7-0.7h5.5c0.4,0,0.7,0.3,0.7,0.7
	C13.3,22.1,13,22.4,12.6,22.4z"/>
<path class="st4" d="M25.6,12.2h-1.4c-0.4,0-0.7-0.3-0.7-0.7c0-0.4,0.3-0.7,0.7-0.7h1.4c0.4,0,0.7,0.3,0.7,0.7
	C26.2,11.9,25.9,12.2,25.6,12.2z"/>
<path class="st4" d="M19.4,15.6h-15c-0.4,0-0.7-0.3-0.7-0.7c0-0.4,0.3-0.7,0.7-0.7h15c0.4,0,0.7,0.3,0.7,0.7
	C20.1,15.3,19.8,15.6,19.4,15.6z"/>
<path class="st4" d="M25.6,15.6h-4.1c-0.4,0-0.7-0.3-0.7-0.7c0-0.4,0.3-0.7,0.7-0.7h4.1c0.4,0,0.7,0.3,0.7,0.7
	C26.2,15.3,25.9,15.6,25.6,15.6z"/>
<path class="st4" d="M7.2,19H4.4c-0.4,0-0.7-0.3-0.7-0.7s0.3-0.7,0.7-0.7h2.7c0.4,0,0.7,0.3,0.7,0.7S7.5,19,7.2,19z"/>
<path class="st4" d="M16.7,19H9.9c-0.4,0-0.7-0.3-0.7-0.7s0.3-0.7,0.7-0.7h6.8c0.4,0,0.7,0.3,0.7,0.7S17.1,19,16.7,19z"/>
<path class="st4" d="M25.6,19h-6.1c-0.4,0-0.7-0.3-0.7-0.7s0.3-0.7,0.7-0.7h6.1c0.4,0,0.7,0.3,0.7,0.7S25.9,19,25.6,19z"/>
</svg>
