<?xml version="1.0" encoding="utf-8"?>
<!-- Generator: Adobe Illustrator 23.0.2, SVG Export Plug-In . SVG Version: 6.00 Build 0)  -->
<svg version="1.1" id="Layer_1" xmlns="http://www.w3.org/2000/svg" xmlns:xlink="http://www.w3.org/1999/xlink" x="0px" y="0px"
	 viewBox="0 0 30 38" style="enable-background:new 0 0 30 38;" xml:space="preserve">
<style type="text/css">
	.st0{fill:#EEEEEE;}
	.st1{fill:#C2CBDA;}
	.st2{fill-rule:evenodd;clip-rule:evenodd;fill:#BF2C37;}
</style>
<path id="Shape" class="st0" d="M20.6,0H1C0.4,0,0,0.4,0,1.3v36C0,37.6,0.4,38,1,38h27.1c0.5,0,1-0.4,1-0.7V8.8
	c0-0.5-0.1-0.6-0.2-0.7L21,0.2C20.9,0.1,20.8,0,20.6,0z"/>
<polygon class="st1" points="21.3,0.1 21.3,8.1 29.3,8.1 "/>
<path class="st2" d="M15.6,15c1.3,0,2.4,0.5,3.3,1.4c0.9,0.9,1.4,2,1.4,3.3c0,1.3-0.5,2.4-1.4,3.3s-2,1.4-3.3,1.4
	c-1.3,0-2.4-0.5-3.3-1.4c-0.9-0.9-1.4-2-1.4-3.3c0-1.3,0.5-2.4,1.4-3.3C13.2,15.5,14.3,15,15.6,15z M28,19.5
	C28,19.5,28,19.6,28,19.5c0,0.1,0,0.2,0,0.2c0,0,0,0.1,0,0.1c0,0,0,0.1,0,0.1c0,0,0,0,0,0V20l0,0v0c0,0,0,0,0,0
	c-0.6,1.3-1.3,2.5-2.1,3.5c-0.9,1-1.9,1.9-3,2.6c-1.1,0.7-2.3,1.2-3.5,1.6s-2.5,0.5-3.8,0.5s-2.6-0.2-3.8-0.5s-2.4-0.9-3.5-1.6
	c-1.1-0.7-2.1-1.5-3-2.6c-0.9-1-1.6-2.2-2.2-3.5v-0.1l0,0c0,0,0,0,0,0v0c0,0,0,0,0-0.1c0,0,0-0.1,0-0.1c0,0,0-0.1,0-0.1
	c0,0,0-0.1,0-0.1c0,0,0-0.1,0-0.1c0,0,0,0,0,0v-0.1l0,0v-0.1c0.6-1.3,1.3-2.5,2.2-3.5s1.9-1.9,3-2.6c1.1-0.7,2.3-1.2,3.5-1.6
	s2.5-0.5,3.8-0.5s2.6,0.2,3.8,0.5c1.2,0.4,2.4,0.9,3.5,1.6c1.1,0.7,2.1,1.6,2.9,2.6s1.6,2.2,2.1,3.5c0,0,0,0,0,0v0l0,0c0,0,0,0,0,0
	L28,19.5C28,19.4,28,19.5,28,19.5z M15.5,26.7c1.1,0,2.2-0.1,3.3-0.4s2.1-0.7,3.1-1.3c1-0.6,1.8-1.3,2.6-2.2c0.8-0.9,1.4-1.9,2-3.1
	c-0.5-1.2-1.2-2.2-2-3.1s-1.6-1.6-2.6-2.2c-1-0.6-2-1-3-1.3c-1.1-0.3-2.2-0.5-3.3-0.5s-2.2,0.2-3.3,0.5c-1.1,0.3-2.1,0.7-3.1,1.3
	c-1,0.6-1.8,1.3-2.6,2.2s-1.5,1.9-2,3.1c0.5,1.2,1.2,2.2,2,3.1c0.8,0.9,1.7,1.6,2.6,2.2c1,0.6,2,1,3,1.3S14.4,26.7,15.5,26.7z"/>
</svg>
